<svg width="156" height="156" viewBox="0 0 156 156" fill="none" xmlns="http://www.w3.org/2000/svg">
<path d="M137.095 85.9365L135.078 98.6076L127.667 145.138C126.87 150.151 122.543 153.842 117.464 153.842H38.5366C33.4571 153.842 29.1306 150.151 28.3338 145.138L20.9186 98.6076L18.8986 85.9365L46.9914 52.1068L116.039 64.2269L137.095 85.9365Z" fill="#F9DCA4"/>
<path d="M137.096 85.9368L135.08 98.6078C133.115 99.0597 131.069 99.2982 128.968 99.2982C119.875 99.2982 111.835 94.8029 106.936 87.9163C99.3476 94.9753 89.1778 99.2982 77.9979 99.2982C66.818 99.2982 56.6481 94.9753 49.0602 87.9163C44.1608 94.8029 36.121 99.2982 27.0273 99.2982C24.9265 99.2982 22.8808 99.0594 20.9196 98.6078L18.8995 85.9368L46.9923 52.107L116.04 64.2272L137.096 85.9368Z" fill="#E7C080"/>
<path d="M48.0425 153.842H38.5345C33.4562 153.842 29.1309 150.152 28.332 145.136L17.6884 78.3205L40.0582 72.2231L48.0425 153.842Z" fill="#E7C080"/>
<path d="M117.872 80.7321L110.721 153.842H105.186L112.392 80.1959L117.872 80.7321Z" fill="#D5A03C"/>
<path d="M50.8109 153.842H45.2763L38.1216 80.7321L43.605 80.1959L50.8109 153.842Z" fill="#D5A03C"/>
<path d="M80.7562 84.4219H75.2471V153.84H80.7562V84.4219Z" fill="#D5A03C"/>
<path d="M156 60.1505C156 75.0765 143.898 87.1781 128.968 87.1781C119.875 87.1781 111.835 82.6828 106.936 75.7962C99.3476 82.8552 89.1778 87.1781 77.9979 87.1781C66.818 87.1781 56.6481 82.8552 49.0602 75.7962C44.1608 82.6828 36.121 87.1781 27.0273 87.1781C12.1016 87.1781 0 75.0765 0 60.1505C0 47.0864 9.26646 36.1896 21.581 33.6701C23.3403 33.3103 25.162 33.1192 27.0276 33.1192C30.4102 33.1192 33.646 33.7472 36.632 34.8822C41.0539 16.1253 57.8897 2.15781 77.9982 2.15781C98.1066 2.15781 114.942 16.1253 119.364 34.8819C122.35 33.7469 125.586 33.1189 128.969 33.1189C130.309 33.1189 131.628 33.218 132.917 33.4053C145.973 35.3154 156 46.5611 156 60.1505Z" fill="#EC589B"/>
<path d="M132.917 33.4056C122.439 34.7719 112.023 48.1665 112.023 48.1665C112.023 38.801 119.364 34.8822 119.364 34.8822C122.35 33.7472 125.586 33.1192 128.969 33.1192C130.309 33.1189 131.628 33.2183 132.917 33.4056Z" fill="#D3468D"/>
<path d="M27.0276 87.1781C12.1016 87.1781 0 75.0765 0 60.1505C0 47.0864 9.26646 36.1896 21.581 33.6701C21.581 33.6698 -6.73207 61.7407 27.0276 87.1781Z" fill="#D3468D"/>
<path d="M53.6037 49.9036L36.632 34.8822C41.0539 16.1253 57.89 2.15781 77.9982 2.15781C77.9982 2.15781 47.4371 16.7313 53.6037 49.9036Z" fill="#D3468D"/>
</svg>
