<svg width="532" height="400" viewBox="0 0 532 400" fill="none" xmlns="http://www.w3.org/2000/svg">
<g clip-path="url(#clip0)">
<path d="M365.318 233.9C365.284 239.3 365.218 244.733 365.185 250.133C365.185 251.467 365.151 252.8 365.151 254.1C365.151 255 364.952 256.133 365.318 257C365.883 258.467 367.778 258.067 368.476 259.3C368.543 259.067 368.609 258.833 368.643 258.6C366.215 259.8 365.584 262.5 365.384 265C365.218 267.4 365.118 271.267 368.244 271.733C368.21 271.433 368.177 271.133 368.111 270.833C363.389 273 365.284 281.467 367.279 284.867C368.742 287.367 370.904 289.4 373.131 291.2C374.395 292.233 375.658 293.2 376.955 294.2C377.72 294.8 378.485 295.367 379.216 295.967C379.615 296.267 381.311 297.2 381.377 297.767C381.51 297.6 381.61 297.433 381.743 297.3C381.776 297.3 381.777 297.3 381.81 297.3C381.876 297.533 381.943 297.767 381.976 298C382.009 297.967 382.009 297.933 382.042 297.9C382.308 297.333 381.477 296.833 381.178 297.4C381.145 297.433 381.145 297.467 381.111 297.5C380.978 297.767 381.045 298 381.278 298.2C381.51 298.4 381.677 298.4 381.976 298.3C382.176 298.233 382.375 298.033 382.342 297.833C382.209 296.8 381.178 296.333 380.38 295.733C379.216 294.8 378.019 293.9 376.855 292.967C374.661 291.267 372.433 289.567 370.538 287.567C368.41 285.333 366.947 282.733 366.515 279.633C366.149 277.1 365.816 273.033 368.609 271.733C368.975 271.567 368.909 270.867 368.476 270.833C365.816 270.433 366.182 266.633 366.382 264.6C366.581 262.6 367.146 260.5 369.108 259.533C369.341 259.4 369.407 259.067 369.274 258.833C368.576 257.633 366.88 257.867 366.249 256.8C365.75 256 366.082 254.133 366.116 253.167C366.116 251.833 366.149 250.5 366.149 249.2C366.182 244.133 366.215 239.033 366.282 233.967C366.315 233.267 365.318 233.233 365.318 233.9Z" fill="#E8E8E8"/>
<path d="M365.85 234.167C370.505 234.4 373.763 237.967 376.556 241.3C377.886 242.9 379.283 244.4 380.646 245.9C382.043 247.4 383.871 250.433 381.344 251.9C380.912 252.167 381.112 252.833 381.61 252.833C385.467 252.933 387.163 257.633 388.36 260.6C389.79 264.2 390.92 267.9 391.752 271.667C393.447 279.4 393.78 287.367 392.816 295.2C392.749 295.833 393.747 295.833 393.813 295.2C394.844 286.467 394.312 277.6 392.151 269.1C391.153 265.1 389.823 261.067 388.028 257.333C386.764 254.667 384.802 251.9 381.61 251.833C381.71 252.133 381.777 252.467 381.876 252.767C386.731 249.967 380.713 244.633 378.751 242.333C375.26 238.267 371.735 233.433 365.883 233.133C365.218 233.133 365.218 234.133 365.85 234.167Z" fill="#E8E8E8"/>
<path d="M382.541 246.167C384.869 237.9 388.127 229.933 392.317 222.433C392.084 222.5 391.851 222.567 391.618 222.6C392.516 223.133 393.447 223.667 394.345 224.2C394.81 224.467 395.243 223.933 395.043 223.5C392.649 218.7 399.831 215.633 402.258 212.767C402.059 212.8 401.859 212.833 401.66 212.833C402.125 213.1 402.624 213.367 403.09 213.633C403.322 213.767 403.622 213.7 403.788 213.467C406.448 208.933 411.136 206.4 415.658 204.067C415.425 203.867 415.159 203.7 414.927 203.5C413.497 208.2 415.758 213.333 416.19 218.033C416.423 220.567 416.456 223.133 416.257 225.7C416.157 226.967 416.257 228.867 415.758 230C415.758 230.833 415.292 231.3 414.328 231.467C414.029 231.5 413.763 231.533 413.464 231.567C412.799 231.633 412.1 231.7 411.435 231.767C411.169 231.8 410.903 231.967 410.937 232.267C410.97 232.933 411.169 233.133 411.668 233.567C412.3 234.1 412.799 234.167 413.098 235.1C413.264 235.6 413.264 236.167 413.264 236.667C413.231 239.367 412.832 242.133 412.366 244.8C411.901 247.4 411.236 249.967 410.438 252.467C409.74 254.567 408.809 257.7 406.215 258.033C405.883 258.067 405.55 258.433 405.783 258.8C407.711 261.767 404.852 265.367 403.455 267.933C401.926 270.667 400.529 273.467 399.233 276.3C396.639 281.933 394.511 287.767 392.782 293.733C392.616 294.367 393.58 294.633 393.746 294C395.708 287.133 398.268 280.467 401.394 274.067C402.857 271.033 404.619 268.167 406.149 265.167C407.246 263 408.11 260.467 406.681 258.267C406.548 258.533 406.381 258.767 406.248 259.033C408.21 258.8 409.474 257.4 410.338 255.7C411.635 253.1 412.333 250.1 412.965 247.267C413.663 244.133 414.129 240.933 414.295 237.733C414.361 236.667 414.461 235.467 413.996 234.467C413.73 233.8 412.034 232.767 412.001 232.3C411.834 232.467 411.668 232.633 411.502 232.8C413.364 232.6 416.024 233.067 416.656 230.933C417.487 228.267 417.454 224.967 417.42 222.233C417.42 219.3 417.121 216.4 416.589 213.533C415.991 210.3 414.927 207.067 415.924 203.8C416.057 203.367 415.558 203.033 415.193 203.233C410.504 205.667 405.683 208.3 402.957 213C403.189 212.933 403.422 212.867 403.655 212.833C403.189 212.567 402.691 212.3 402.225 212.033C402.059 211.933 401.76 211.933 401.627 212.1C398.834 215.4 391.485 218.533 394.245 224.033C394.478 223.8 394.711 223.567 394.943 223.333C394.046 222.8 393.115 222.267 392.217 221.733C391.984 221.6 391.652 221.667 391.519 221.9C387.329 229.5 384.004 237.533 381.643 245.867C381.377 246.533 382.342 246.8 382.541 246.167Z" fill="#E8E8E8"/>
<path d="M359.034 212.1C353.448 212.5 350.488 205.933 351.419 201.2C352.317 196.567 356.839 193.3 361.461 193.433C367.545 193.567 370.671 199.533 369.574 205.1C368.609 210.067 363.622 213.733 358.634 211.767C358.036 211.533 357.77 212.5 358.369 212.733C362.358 214.3 367.013 212.467 369.208 208.833C371.535 204.967 371.269 199.433 368.576 195.833C365.85 192.167 360.629 191.667 356.673 193.433C352.716 195.167 350.123 199.067 350.222 203.4C350.322 208.133 353.813 213.467 359 213.1C359.665 213.067 359.699 212.067 359.034 212.1Z" fill="#E8E8E8"/>
<path d="M410.072 138.867C408.144 142.467 405.916 145.867 403.389 149.067C402.99 149.567 403.688 150.267 404.087 149.767C406.681 146.5 408.975 143.033 410.937 139.367C411.236 138.8 410.371 138.3 410.072 138.867Z" fill="#E8E8E8"/>
<path d="M410.039 139.667C411.236 142.833 412.5 146 413.796 149.133C414.029 149.733 414.993 149.467 414.76 148.867C413.464 145.733 412.2 142.567 411.003 139.4C410.771 138.8 409.806 139.067 410.039 139.667Z" fill="#E8E8E8"/>
<path d="M409.806 140.133C409.573 152.533 407.977 164.867 405.018 176.9C404.852 177.533 405.816 177.8 405.982 177.167C408.975 165.033 410.571 152.633 410.804 140.133C410.837 139.467 409.839 139.467 409.806 140.133Z" fill="#E8E8E8"/>
<path d="M415.558 160.5C416.423 167.633 416.223 174.833 414.927 181.9C414.827 182.533 415.758 182.8 415.891 182.167C417.188 175 417.42 167.733 416.556 160.5C416.456 159.867 415.459 159.867 415.558 160.5Z" fill="#E8E8E8"/>
<path d="M411.735 174.367C412.898 177.033 414.927 179.467 415.06 182.467C415.093 182.967 415.725 183.167 415.991 182.733C417.154 180.7 418.351 178.667 419.515 176.633C419.848 176.067 418.983 175.567 418.651 176.133C417.487 178.167 416.29 180.2 415.126 182.233C415.425 182.333 415.758 182.4 416.057 182.5C415.924 179.267 413.829 176.767 412.599 173.9C412.333 173.267 411.469 173.767 411.735 174.367Z" fill="#E8E8E8"/>
<path d="M184.87 343.133C204.92 341.267 225.003 338.833 245.119 338C265.401 337.167 285.784 337.7 306.066 338.233C317.704 338.533 329.341 339.1 340.912 340.2C341.544 340.267 341.544 339.267 340.912 339.2C320.563 337.267 300.148 337.033 279.732 336.8C269.491 336.667 259.25 336.567 249.042 336.9C239.101 337.2 229.192 338.033 219.284 338.933C207.812 340 196.341 341.067 184.87 342.133C184.238 342.167 184.238 343.167 184.87 343.133Z" fill="#E8E8E8"/>
<path d="M289.208 328.4C297.554 329.967 305.8 329.9 314.212 329.133C322.857 328.333 331.469 327.833 340.147 327.433C357.57 326.667 374.993 325.967 392.383 325.233C402.325 324.8 412.267 324.4 422.208 323.967C422.84 323.933 422.84 322.933 422.208 322.967C404.752 323.7 387.329 324.433 369.873 325.167C352.716 325.9 335.459 326.267 318.335 327.733C313.68 328.133 309.025 328.667 304.37 328.733C299.383 328.8 294.395 328.333 289.474 327.4C288.843 327.333 288.577 328.3 289.208 328.4Z" fill="#E8E8E8"/>
<path d="M62.9754 321.333C78.4699 321.767 93.9644 321.7 109.459 321.133C110.091 321.1 110.091 320.1 109.459 320.133C93.9644 320.7 78.4699 320.767 62.9754 320.333C62.3104 320.3 62.3104 321.3 62.9754 321.333Z" fill="#E8E8E8"/>
<path d="M79.8997 334.733C85.5522 333.533 91.5372 334.3 97.2562 334.567C103.008 334.867 108.727 335.133 114.48 335.433C126.184 336.033 137.854 336.633 149.558 337.2C150.19 337.233 150.19 336.233 149.558 336.2C137.655 335.6 125.718 335 113.815 334.4C107.863 334.1 101.911 333.8 95.9595 333.5C90.5397 333.233 85.0202 332.6 79.667 333.767C79.0352 333.9 79.3012 334.867 79.8997 334.733Z" fill="#E8E8E8"/>
<path d="M169.542 309.333C190.09 310.733 210.306 305.4 230.821 305.467C231.453 305.467 231.453 304.467 230.821 304.467C210.306 304.4 190.09 309.7 169.542 308.333C168.91 308.267 168.91 309.3 169.542 309.333Z" fill="#E8E8E8"/>
<path d="M154.147 205.733C154.313 205.167 154.479 204.6 154.745 204.067C154.912 203.833 155.045 203.633 155.211 203.4C155.909 203.333 156.641 203.233 157.339 203.167C157.538 203.3 157.705 203.7 157.838 203.9C158.336 204.6 158.868 205.2 159.633 205.667C161.096 206.533 162.858 206.733 164.421 206.133C168.511 204.633 170.04 199.2 175.028 199.733C176.358 199.867 177.621 200.4 178.586 201.333C179.317 202.033 179.882 202.9 180.647 203.567C182.01 204.7 183.706 204.867 185.335 204.267C187.33 203.567 188.86 202.067 190.356 200.633C192.384 198.733 195.344 196.433 198.037 198.467C199.799 199.767 200.83 201.767 203.024 202.467C205.086 203.133 207.28 202.733 209.009 201.433C209.508 201.067 209.009 200.167 208.511 200.567C206.117 202.367 203.124 202.067 201.029 199.967C199.633 198.6 198.436 196.9 196.374 196.667C191.52 196.067 188.993 202 184.87 203.367C181.744 204.4 180.714 201.6 178.652 200.067C177.123 198.933 175.194 198.467 173.299 198.767C171.304 199.067 169.774 200.267 168.378 201.633C166.749 203.267 165.02 205.5 162.493 205.5C160.797 205.5 159.5 204.567 158.569 203.233C158.037 202.5 157.605 201.9 156.641 201.8C154.546 201.6 153.648 203.8 153.149 205.433C152.983 206.067 153.947 206.333 154.147 205.733Z" fill="#E8E8E8"/>
<path d="M205.418 188.5C206.615 185 210.805 187.967 212.401 189.267C213.797 190.4 215.427 191.567 217.322 191.5C220.447 191.367 222.11 188.167 224.67 186.833C228.228 185 230.389 189.767 233.847 189.3C235.377 189.1 236.175 187.867 237.139 186.8C238.17 185.667 239.234 185.667 240.697 186C242.06 186.333 243.456 186.667 244.82 187C245.451 187.167 245.717 186.2 245.086 186.033C243.722 185.7 242.326 185.367 240.963 185.033C240.032 184.8 239.101 184.533 238.17 184.8C236.341 185.367 235.809 187.8 233.98 188.233C232.018 188.7 230.09 186.5 228.394 185.8C226.964 185.2 225.568 185.2 224.205 185.933C222.742 186.7 221.644 188 220.348 189.033C219.483 189.733 218.519 190.367 217.388 190.433C215.659 190.533 214.23 189.333 212.966 188.333C211.437 187.133 209.807 185.7 207.713 185.867C206.216 185.967 204.986 186.767 204.487 188.2C204.255 188.833 205.219 189.1 205.418 188.5Z" fill="#E8E8E8"/>
<path d="M355.742 91.2333C355.442 97.4667 355.243 103.733 355.176 110C355.176 110.633 356.174 110.633 356.174 110C356.24 103.733 356.44 97.5 356.739 91.2333C356.772 90.6 355.775 90.6 355.742 91.2333Z" fill="#E8E8E8"/>
<path d="M356.407 91.7C364.087 90.6333 371.901 89.6 379.549 91.4C380.18 91.5333 380.446 90.6 379.815 90.4333C372.001 88.5667 363.988 89.6333 356.141 90.7333C355.509 90.8 355.775 91.7667 356.407 91.7Z" fill="#E8E8E8"/>
<path d="M378.917 91.7333C379.083 104.4 378.85 117.1 378.185 129.767C378.152 130.4 379.15 130.4 379.183 129.767C379.848 117.1 380.081 104.433 379.914 91.7333C379.914 91.1 378.917 91.1 378.917 91.7333Z" fill="#E8E8E8"/>
<path d="M356.008 126.367C356.174 127.967 356.24 129.633 356.54 131.2C356.706 131.967 356.972 132.5 357.637 132.967C359.732 134.333 363.123 133.533 365.417 133.4C368.676 133.2 371.968 133 375.226 132.8C376.689 132.7 379.017 132.3 378.119 130.267C377.853 129.667 376.988 130.2 377.254 130.767C377.421 131.133 375.559 131.733 375.226 131.8C374.694 131.9 374.129 131.867 373.597 131.9C372.633 131.967 371.635 132.033 370.671 132.067C368.709 132.2 366.747 132.3 364.786 132.433C362.99 132.533 360.995 132.9 359.2 132.5C356.939 131.967 357.238 128.3 357.005 126.4C356.939 125.733 355.941 125.733 356.008 126.367Z" fill="#E8E8E8"/>
<path d="M349.956 125.133C347.03 129.433 344.004 133.667 340.945 137.867C340.846 138 340.846 138.233 340.945 138.367C341.477 139.2 342.375 139.533 343.339 139.233C344.769 138.8 345.467 137.167 346.199 136.033C347.396 134.167 348.759 132.4 350.222 130.7C350.854 130 351.486 129.3 352.151 128.633C352.915 127.867 354.212 126.233 355.309 126.067C355.941 125.967 355.675 125 355.043 125.1C354.046 125.267 353.381 126.067 352.649 126.733C351.685 127.633 350.754 128.567 349.856 129.567C348.127 131.5 346.531 133.567 345.135 135.733C344.736 136.333 344.403 137.067 343.905 137.6C343.373 138.367 342.807 138.433 342.142 137.8C342.342 137.533 342.541 137.267 342.708 137C343.605 135.767 344.503 134.533 345.368 133.3C347.196 130.733 348.992 128.167 350.754 125.567C351.186 125.1 350.322 124.6 349.956 125.133Z" fill="#E8E8E8"/>
<path d="M355.143 126.367C359.266 126.467 363.223 123.967 364.852 120.167C366.315 116.733 365.517 112.267 362.425 110C358.867 107.433 354.312 109.367 351.552 112.167C349.923 113.833 348.56 115.933 348.227 118.267C348.094 119.2 348.127 120.133 348.36 121.033C348.493 121.567 348.693 122.067 348.959 122.533C349.025 122.667 350.555 124.833 349.89 124.8C349.258 124.733 349.258 125.733 349.89 125.8C350.92 125.9 351.452 124.967 351.153 124.033C350.92 123.267 350.189 122.733 349.79 122.033C349.191 120.933 349.058 119.667 349.225 118.433C349.79 114.167 354.312 109.7 358.701 109.767C363.023 109.8 365.284 114.633 364.387 118.433C363.389 122.567 359.333 125.467 355.143 125.333C354.478 125.367 354.478 126.367 355.143 126.367Z" fill="#E8E8E8"/>
<path d="M359.865 95.2333L359.831 95.2C359.831 95.4333 359.831 95.6666 359.831 95.9C360.264 95.4 363.256 95.4333 364.054 95.3333C365.318 95.2 366.614 95.1 367.878 95.0333C369.141 94.9666 370.438 94.9 371.735 94.8666C372.3 94.8666 375.259 95.1333 375.459 94.6C375.226 95.2 376.19 95.4666 376.423 94.8666C376.456 94.8 376.456 94.7666 376.49 94.7C376.556 94.5333 376.49 94.3333 376.357 94.2C375.625 93.4667 374.295 93.8 373.331 93.8C371.502 93.8 369.707 93.8666 367.878 94C366.182 94.1 364.486 94.2666 362.757 94.4333C361.893 94.5333 359.732 94.4 359.1 95.1333C358.934 95.3333 358.9 95.6333 359.1 95.8333L359.133 95.8666C359.632 96.4 360.33 95.6666 359.865 95.2333Z" fill="#E8E8E8"/>
<path d="M359.399 100.1C362.757 100.567 366.016 100.433 369.374 100.3C370.006 100.267 370.006 99.2667 369.374 99.3C366.082 99.4333 362.924 99.5667 359.665 99.1333C359.033 99.0667 358.767 100.033 359.399 100.1Z" fill="#E8E8E8"/>
<path d="M357.138 103.867C357.038 103.967 356.939 104.1 356.839 104.2C356.54 104.533 356.739 105.033 357.205 105.067C362.99 105.167 368.776 104.9 374.528 104.267C375.16 104.2 375.16 103.2 374.528 103.267C368.776 103.9 362.99 104.167 357.205 104.067C357.338 104.367 357.437 104.633 357.57 104.933C357.67 104.833 357.77 104.7 357.87 104.6C358.269 104.1 357.57 103.4 357.138 103.867Z" fill="#E8E8E8"/>
<path d="M364.287 109.333C367.313 109.567 370.339 109.433 373.331 108.933C373.963 108.833 373.697 107.867 373.065 107.967C370.139 108.433 367.213 108.567 364.287 108.333C363.622 108.3 363.622 109.3 364.287 109.333Z" fill="#E8E8E8"/>
<path d="M356.174 122.833C353.481 122.967 351.186 120.6 352.051 117.867C352.716 115.7 355.21 113.4 357.471 113.033C358.568 112.867 359.765 113.133 360.596 113.9C361.826 115.033 361.494 116.7 360.929 118.067C359.964 120.467 358.202 122.633 355.509 122.933C354.877 123 354.877 124 355.509 123.933C358.967 123.567 361.427 120.6 362.259 117.333C363.057 114.267 360.796 111.733 357.637 112C354.711 112.267 351.486 115.233 350.954 118.133C350.388 121.367 353.015 124 356.174 123.833C356.806 123.8 356.806 122.8 356.174 122.833Z" fill="#E8E8E8"/>
<path d="M356.739 113.467C355.409 116.333 354.179 119.233 353.082 122.167C352.849 122.767 353.813 123.033 354.046 122.433C355.143 119.567 356.307 116.733 357.604 113.967C357.87 113.367 357.039 112.867 356.739 113.467Z" fill="#E8E8E8"/>
<path d="M358.269 116.333C357.404 118.133 356.573 119.933 355.708 121.733C355.442 122.3 356.307 122.833 356.573 122.233C357.437 120.433 358.269 118.633 359.133 116.833C359.399 116.267 358.568 115.733 358.269 116.333Z" fill="#E8E8E8"/>
<path d="M111.088 61.9C111.088 64.9333 111.088 68 111.088 71.0333C111.088 71.6667 112.086 71.6667 112.086 71.0333C112.086 68 112.086 64.9333 112.086 61.9C112.086 61.2667 111.088 61.2667 111.088 61.9Z" fill="#E8E8E8"/>
<path d="M111.72 71.4667C114.546 71.4667 117.339 71.4667 120.165 71.4667C120.797 71.4667 120.797 70.4666 120.165 70.4666C117.339 70.4666 114.546 70.4666 111.72 70.4666C111.088 70.4666 111.088 71.4667 111.72 71.4667Z" fill="#E8E8E8"/>
<path d="M120.764 70.4C120.764 67.1 120.764 63.7667 120.764 60.4667C120.764 59.8333 119.766 59.8333 119.766 60.4667C119.766 63.7667 119.766 67.1 119.766 70.4C119.766 71.0333 120.764 71.0333 120.764 70.4Z" fill="#E8E8E8"/>
<path d="M120.398 59.8333C117.505 59.8333 114.613 59.8333 111.753 59.8333C111.121 59.8333 111.121 60.8333 111.753 60.8333C114.646 60.8333 117.539 60.8333 120.398 60.8333C121.03 60.8333 121.03 59.8333 120.398 59.8333Z" fill="#E8E8E8"/>
<path d="M115.311 72C115.311 75.4 115.311 78.7667 115.311 82.1667C115.311 82.8 116.308 82.8 116.308 82.1667C116.308 78.7667 116.308 75.4 116.308 72C116.308 71.3667 115.311 71.3667 115.311 72Z" fill="#E8E8E8"/>
<path d="M103.607 82.0333C107.298 78.5 111.155 75.1 115.145 71.8666C115.643 71.4666 114.945 70.7666 114.446 71.1666C110.456 74.4 106.633 77.7666 102.909 81.3333C102.443 81.7666 103.141 82.4667 103.607 82.0333Z" fill="#E8E8E8"/>
<path d="M116.375 72.2C120.365 75.2333 124.355 78.2667 128.345 81.3C128.844 81.7 129.342 80.8333 128.844 80.4333C124.854 77.4 120.864 74.3667 116.874 71.3333C116.375 70.9333 115.876 71.8 116.375 72.2Z" fill="#E8E8E8"/>
<path d="M99.7499 83.2333C101.944 83.2333 104.139 83.2333 106.367 83.2333C106.998 83.2333 106.998 82.2333 106.367 82.2333C104.172 82.2333 101.978 82.2333 99.7499 82.2333C99.1182 82.2333 99.1182 83.2333 99.7499 83.2333Z" fill="#E8E8E8"/>
<path d="M105.768 83.4333C105.768 85.9333 105.768 88.4667 105.768 90.9667C105.768 91.6 106.766 91.6 106.766 90.9667C106.766 88.4667 106.766 85.9333 106.766 83.4333C106.766 82.7667 105.768 82.7667 105.768 83.4333Z" fill="#E8E8E8"/>
<path d="M99.0184 82.9667C99.0184 85.9 99.0184 88.8333 99.0184 91.7666C99.0184 92.4 100.016 92.4 100.016 91.7666C100.016 88.8333 100.016 85.9 100.016 82.9667C100.016 82.3 99.0184 82.3 99.0184 82.9667Z" fill="#E8E8E8"/>
<path d="M99.4174 92.3667C101.479 92.3667 103.507 92.3667 105.569 92.3667C106.2 92.3667 106.2 91.3667 105.569 91.3667C103.507 91.3667 101.479 91.3667 99.4174 91.3667C98.7857 91.3667 98.7857 92.3667 99.4174 92.3667Z" fill="#E8E8E8"/>
<path d="M112.252 83.2C112.252 86.1 112.252 89 112.252 91.8667C112.252 92.5 113.249 92.5 113.249 91.8667C113.249 88.9667 113.249 86.0667 113.249 83.2C113.249 82.5333 112.252 82.5333 112.252 83.2Z" fill="#E8E8E8"/>
<path d="M112.751 92.1333C114.779 92.1333 116.774 92.1333 118.802 92.1333C119.434 92.1333 119.434 91.1333 118.802 91.1333C116.774 91.1333 114.779 91.1333 112.751 91.1333C112.119 91.1333 112.119 92.1333 112.751 92.1333Z" fill="#E8E8E8"/>
<path d="M113.083 83.7C114.879 83.7 116.641 83.7 118.436 83.7C119.068 83.7 119.068 82.7 118.436 82.7C116.641 82.7 114.879 82.7 113.083 82.7C112.451 82.7 112.451 83.7 113.083 83.7Z" fill="#E8E8E8"/>
<path d="M118.071 83.0667C118.071 85.8 118.071 88.5333 118.071 91.3C118.071 91.9333 119.068 91.9333 119.068 91.3C119.068 88.5667 119.068 85.8333 119.068 83.0667C119.068 82.4333 118.071 82.4333 118.071 83.0667Z" fill="#E8E8E8"/>
<path d="M126.35 83.0667C126.25 85.2333 126.184 87.4 126.184 89.5667C126.184 90.2 127.181 90.2 127.181 89.5667C127.181 87.4 127.248 85.2333 127.347 83.0667C127.381 82.4333 126.383 82.4333 126.35 83.0667Z" fill="#E8E8E8"/>
<path d="M126.782 83.3C128.977 83.0667 131.171 82.8 133.366 82.5667C133.997 82.5 133.997 81.5 133.366 81.5667C131.171 81.8 128.977 82.0667 126.782 82.3C126.151 82.3667 126.117 83.3667 126.782 83.3Z" fill="#E8E8E8"/>
<path d="M133.033 82.2667C132.8 84.5 132.867 86.7 133.266 88.9C133.366 89.5333 134.33 89.2667 134.23 88.6333C133.864 86.5 133.798 84.4 134.031 82.2667C134.097 81.6333 133.1 81.6333 133.033 82.2667Z" fill="#E8E8E8"/>
<path d="M127.115 90.4333C129.309 90.1 131.504 89.7666 133.698 89.4333C134.33 89.3333 134.064 88.3666 133.432 88.4666C131.238 88.8 129.043 89.1333 126.849 89.4666C126.217 89.5666 126.483 90.5 127.115 90.4333Z" fill="#E8E8E8"/>
<path d="M115.178 92.4333C113.948 94.3 112.884 96.2667 111.919 98.2667C111.653 98.8333 112.518 99.3667 112.784 98.7667C113.748 96.7333 114.845 94.8 116.042 92.9333C116.375 92.4 115.51 91.9 115.178 92.4333Z" fill="#E8E8E8"/>
<path d="M115.477 92.8333C116.707 94.5 117.771 96.2333 118.669 98.0667C118.968 98.6333 119.833 98.1333 119.534 97.5667C118.603 95.7333 117.539 93.9667 116.342 92.3333C115.976 91.8 115.111 92.3 115.477 92.8333Z" fill="#E8E8E8"/>
<path d="M110.124 99.5667C110.822 99.5667 111.52 99.5667 112.252 99.6C112.584 99.6 112.884 99.6333 113.216 99.6667C113.815 99.7 113.748 99.5 113.848 100.033C114.081 101.3 113.815 102.933 113.715 104.233C113.648 104.867 114.646 104.867 114.712 104.233C114.779 103.233 114.845 102.2 114.845 101.2C114.845 100.633 115.012 99.7 114.712 99.1667C114.413 98.6667 113.715 98.7334 113.216 98.7C112.185 98.6334 111.155 98.6 110.124 98.6C109.492 98.5667 109.492 99.5667 110.124 99.5667Z" fill="#E8E8E8"/>
<path d="M109.459 99.5333C109.559 100.7 109.658 101.833 109.758 103C109.825 103.933 109.692 105.3 110.057 106.2C110.19 106.567 110.357 106.7 110.722 106.767C111.587 106.933 112.884 106.5 113.748 106.367C114.38 106.267 114.114 105.333 113.482 105.4C112.884 105.467 111.953 105.833 111.387 105.7C110.756 105.533 110.889 104.667 110.855 104C110.722 102.5 110.589 101.033 110.456 99.5333C110.39 98.9 109.392 98.8667 109.459 99.5333Z" fill="#E8E8E8"/>
<path d="M116.973 99.4C116.907 100.367 116.874 101.367 116.907 102.333C116.907 102.567 117.206 104.767 117.106 104.833C117.273 104.8 117.439 104.733 117.605 104.7C117.572 104.7 117.539 104.667 117.472 104.667C117.605 104.833 117.705 105 117.838 105.133C117.838 105.1 117.838 105.067 117.838 105C117.705 105.167 117.605 105.333 117.472 105.467C117.505 105.467 117.539 105.467 117.572 105.433C118.204 105.3 117.938 104.333 117.306 104.467C117.273 104.467 117.239 104.467 117.206 104.5C116.973 104.533 116.84 104.767 116.84 104.967C116.84 105 116.84 105.033 116.84 105.1C116.84 105.3 117.007 105.533 117.206 105.567C118.071 105.733 118.071 104.933 118.037 104.3C117.904 102.633 117.838 101 117.971 99.3C118.004 98.7333 117.007 98.7666 116.973 99.4Z" fill="#E8E8E8"/>
<path d="M117.572 99.6333C117.572 99.4 119.7 99.3333 119.999 99.3667C120.83 99.5 120.664 99.5667 120.797 100.167C120.897 100.567 120.764 101.133 120.731 101.533C120.697 102.367 120.697 103.167 120.731 104C120.731 104.467 121.063 105.867 120.83 106.2C121.063 106.133 121.296 106.067 121.529 106.033C121.495 106.033 121.462 106 121.429 106C121.495 106.2 121.595 106.367 121.662 106.567C121.662 106.533 121.695 106.5 121.695 106.467C121.861 105.833 120.897 105.567 120.731 106.2C120.731 106.233 120.697 106.267 120.697 106.3C120.631 106.5 120.731 106.767 120.93 106.867C120.963 106.867 120.997 106.9 121.03 106.9C121.296 107 121.562 106.967 121.728 106.733C121.961 106.4 121.861 106.067 121.828 105.667C121.795 104.767 121.728 103.833 121.728 102.933C121.728 102.033 121.761 101.1 121.795 100.2C121.828 99.8 121.928 99.2667 121.662 98.9C121.096 98.1333 119.301 98.3667 118.569 98.4667C117.738 98.5667 116.641 98.6667 116.574 99.6667C116.574 100.267 117.572 100.267 117.572 99.6333Z" fill="#E8E8E8"/>
<path d="M117.672 106.4C118.669 106.333 119.667 106.433 120.631 106.667C121.263 106.833 121.529 105.867 120.897 105.7C119.833 105.4 118.769 105.3 117.672 105.367C117.007 105.433 117.007 106.433 117.672 106.4Z" fill="#E8E8E8"/>
<path d="M130.174 90.6333C129.376 92.4 128.677 94.2333 128.046 96.0667C127.846 96.6667 128.81 96.9333 129.01 96.3333C129.608 94.5667 130.273 92.8333 131.038 91.1333C131.304 90.5333 130.44 90.0333 130.174 90.6333Z" fill="#E8E8E8"/>
<path d="M125.086 98.5333C126.749 98.0666 128.445 97.8333 130.207 97.9C130.839 97.9333 130.839 96.9333 130.207 96.9C128.378 96.8333 126.583 97.0666 124.82 97.5666C124.189 97.7333 124.455 98.7 125.086 98.5333Z" fill="#E8E8E8"/>
<path d="M125.053 98.0667C124.754 99 124.987 99.8666 125.086 100.8C125.186 101.933 125.186 103.033 125.153 104.167C125.086 105.633 125.452 105.8 126.915 105.667C127.913 105.567 129.276 105.833 129.642 104.733C129.974 103.667 129.874 102.233 129.974 101.1C130.074 99.9 130.207 98.6667 130.307 97.4667C130.373 96.8333 129.376 96.8333 129.309 97.4667C129.176 98.8667 129.043 100.3 128.91 101.7C128.844 102.267 128.877 102.967 128.744 103.533C128.544 104.467 128.445 104.533 127.48 104.633C127.181 104.667 126.915 104.7 126.616 104.733C126.051 104.933 125.884 104.767 126.117 104.2C125.984 103.733 126.184 103 126.15 102.5C126.117 101.233 125.618 99.5333 125.984 98.3333C126.217 97.7 125.253 97.4333 125.053 98.0667Z" fill="#E8E8E8"/>
<path d="M131.57 91.5667C132.335 92.7333 133 93.9667 133.632 95.2333C133.898 95.8 134.762 95.3 134.496 94.7333C133.898 93.4667 133.199 92.2667 132.435 91.0667C132.069 90.5 131.204 91 131.57 91.5667Z" fill="#E8E8E8"/>
<path d="M132.701 96.7C134.363 96.7 136.026 96.7 137.688 96.7C138.32 96.7 138.32 95.7 137.688 95.7C137.588 95.7 137.489 95.7 137.389 95.7C136.757 95.7 136.757 96.7 137.389 96.7C137.489 96.7 137.588 96.7 137.688 96.7C138.32 96.7 138.32 95.7 137.688 95.7C136.026 95.7 134.363 95.7 132.701 95.7C132.036 95.7 132.036 96.7 132.701 96.7Z" fill="#E8E8E8"/>
<path d="M132.202 96.6667C132.335 97.9333 132.435 99.2 132.468 100.467C132.501 101.367 132.202 102.9 132.601 103.733C132.834 104.233 133.133 104.3 133.665 104.3C134.895 104.267 136.225 103.967 137.455 103.8C137.655 103.767 137.821 103.5 137.821 103.333C137.788 101.067 137.755 98.8333 137.721 96.5667C137.721 95.9333 136.724 95.9333 136.724 96.5667C136.757 98.8333 136.79 101.067 136.824 103.333C136.957 103.167 137.056 103 137.189 102.867C136.391 102.967 135.593 103.067 134.795 103.2C134.529 103.233 133.765 103.467 133.532 103.267C133.366 103.133 133.532 102.1 133.532 101.9C133.499 100.167 133.399 98.4333 133.233 96.7333C133.133 96.0333 132.135 96.0333 132.202 96.6667Z" fill="#E8E8E8"/>
<path d="M95.2944 99.4C97.0234 97.8 98.7856 96.3 100.681 94.9333C101.18 94.5667 100.681 93.7 100.182 94.0667C98.2204 95.5 96.3584 97.0333 94.5961 98.7C94.1306 99.1333 94.8289 99.8333 95.2944 99.4Z" fill="#E8E8E8"/>
<path d="M100.382 94.5C101.379 95.9333 102.21 97.4333 102.875 99C103.141 99.6 104.006 99.0667 103.74 98.5C103.042 96.9 102.21 95.4 101.246 94C100.88 93.4667 100.016 93.9667 100.382 94.5Z" fill="#E8E8E8"/>
<path d="M90.8722 101.233C91.7699 101.167 92.6344 101.1 93.5322 101.033C93.9312 101 94.3634 100.9 94.7292 100.933C95.1947 100.767 95.3277 100.8 95.1282 101.067C94.9952 101.267 94.9287 101.467 94.9619 101.7C94.5962 103.333 94.5297 105.067 94.4632 106.733C94.7624 106.6 95.0284 106.5 95.3277 106.367C95.2944 106.333 95.2612 106.3 95.2279 106.233C94.7957 105.767 94.0974 106.467 94.5297 106.933C94.5629 106.967 94.5962 107 94.6294 107.067C94.9287 107.4 95.4607 107.133 95.4939 106.7C95.5272 105.267 95.6602 103.833 95.8597 102.433C95.9594 101.833 96.3917 100.833 96.0259 100.233C95.7267 99.7667 95.2279 99.8667 94.7624 99.9C93.4657 100 92.2022 100.1 90.9055 100.2C90.2405 100.3 90.2405 101.3 90.8722 101.233Z" fill="#E8E8E8"/>
<path d="M91.5372 100.267C91.504 100.267 91.4707 100.267 91.4042 100.267C91.238 100.267 91.0717 100.367 90.972 100.5C90.44 101.4 90.4732 102.967 90.307 104C90.0742 105.467 89.8415 106.933 89.6087 108.4C89.5755 108.667 89.6752 108.967 89.9412 109C91.504 109.333 92.967 109.267 94.4632 108.7C95.0617 108.467 94.7957 107.5 94.1972 107.733C92.8672 108.233 91.6037 108.333 90.2072 108.033C90.307 108.233 90.44 108.433 90.5397 108.633C90.6395 107.967 91.8032 101.267 91.4707 101.233C92.169 101.333 92.169 100.333 91.5372 100.267Z" fill="#E8E8E8"/>
<path d="M100.581 100.1L100.548 100.133C100.781 100.133 101.013 100.133 101.246 100.133C101.213 100.133 101.213 100.1 101.18 100.1C101.18 100.333 101.18 100.567 101.18 100.8C101.213 100.767 101.811 100.767 101.944 100.767C102.31 100.733 102.709 100.7 103.075 100.7C103.773 100.667 104.471 100.7 105.17 100.767C105.037 100.467 104.937 100.2 104.804 99.9C104.737 99.9333 104.671 100 104.638 100.033C104.006 100.1 104.006 101.1 104.638 101.033C105.003 101 105.269 100.9 105.535 100.6C105.835 100.267 105.635 99.7667 105.17 99.7333C104.205 99.6667 103.241 99.6333 102.277 99.7C101.811 99.7333 100.847 99.6333 100.515 100.067C100.348 100.267 100.282 100.6 100.515 100.767C100.548 100.767 100.548 100.8 100.581 100.8C100.781 100.967 101.113 101.033 101.279 100.8L101.313 100.767C101.712 100.333 101.013 99.6333 100.581 100.1Z" fill="#E8E8E8"/>
<path d="M100.182 100.333C100.082 101.7 99.9826 103.067 99.9161 104.433C99.8829 105.2 99.4506 107.167 99.9161 107.867C100.149 108.2 100.382 108.333 100.814 108.3C101.246 108.3 101.712 108 102.111 107.9C102.909 107.667 103.74 107.6 104.571 107.6C105.203 107.6 105.203 106.6 104.571 106.6C103.84 106.6 103.108 106.667 102.377 106.833C102.044 106.9 101.412 107.267 101.113 107.2C100.88 107.367 100.781 107.333 100.847 107.067C100.814 106.8 100.814 106.533 100.847 106.233C100.88 104.3 101.047 102.333 101.18 100.4C101.246 99.6667 100.249 99.6667 100.182 100.333Z" fill="#E8E8E8"/>
<path d="M104.471 100.433C104.205 102.667 104.072 104.9 104.106 107.167C104.106 107.8 105.103 107.8 105.103 107.167C105.07 104.9 105.203 102.667 105.469 100.433C105.569 99.8 104.571 99.8 104.471 100.433Z" fill="#E8E8E8"/>
<path d="M370.072 240.267C377.919 257.567 383.406 275.833 386.431 294.6C386.531 295.233 387.495 294.967 387.396 294.333C384.337 275.5 378.817 257.133 370.937 239.767C370.671 239.2 369.806 239.7 370.072 240.267Z" fill="#E8E8E8"/>
<path d="M411.469 211C401.76 225.867 393.314 241.533 387.329 258.3C387.096 258.9 388.061 259.167 388.293 258.567C394.245 241.867 402.657 226.3 412.333 211.5C412.666 210.967 411.801 210.467 411.469 211Z" fill="#E8E8E8"/>
<path d="M366.681 258.533C372.067 260 376.689 263.333 379.781 268C380.147 268.533 381.012 268.033 380.646 267.5C377.421 262.633 372.599 259.1 366.947 257.567C366.315 257.4 366.049 258.367 366.681 258.533Z" fill="#E8E8E8"/>
<path d="M379.648 244.7C377.82 247.733 376.589 251.033 376.091 254.567C375.991 255.2 376.955 255.467 377.055 254.833C377.554 251.4 378.717 248.167 380.513 245.2C380.845 244.667 379.981 244.167 379.648 244.7Z" fill="#E8E8E8"/>
<path d="M389.989 225.967C391.618 227.767 392.749 229.833 393.613 232.067C394.012 233.067 394.345 234.1 394.644 235.1C394.943 236.067 395.642 237.5 395.243 238.467C395.01 239.067 395.974 239.333 396.207 238.733C396.606 237.767 396.207 236.8 395.908 235.867C395.509 234.5 395.076 233.133 394.544 231.8C393.613 229.4 392.383 227.167 390.654 225.233C390.255 224.767 389.557 225.467 389.989 225.967Z" fill="#E8E8E8"/>
<path d="M401.261 229.8C405.417 225 410.804 221.6 416.922 219.933C417.553 219.767 417.287 218.8 416.656 218.967C410.405 220.667 404.819 224.167 400.563 229.067C400.164 229.567 400.862 230.3 401.261 229.8Z" fill="#E8E8E8"/>
<path d="M389.524 256.567C392.516 253.9 396.041 252.033 399.765 250.633C401.461 250 403.156 249.5 404.885 249C405.85 248.733 406.781 248.5 407.745 248.233C408.21 248.133 410.172 247.333 410.538 247.533C410.471 247.3 410.405 247.067 410.372 246.833C410.338 246.867 410.338 246.9 410.305 246.933C410.538 246.867 410.771 246.8 411.003 246.767C410.97 246.767 410.937 246.733 410.904 246.733C410.338 246.433 409.84 247.3 410.405 247.6C410.438 247.6 410.471 247.633 410.505 247.633C410.737 247.767 411.037 247.7 411.203 247.467C411.236 247.433 411.236 247.4 411.269 247.367C411.402 247.133 411.336 246.833 411.103 246.667C410.638 246.4 410.139 246.633 409.64 246.733C408.51 247 407.379 247.267 406.249 247.567C404.087 248.133 401.926 248.767 399.798 249.5C395.808 250.933 392.017 252.9 388.859 255.767C388.36 256.267 389.058 257 389.524 256.567Z" fill="#E8E8E8"/>
<path d="M372.566 297.7C380.114 299.533 387.795 298.167 395.342 297.267C403.522 296.3 411.735 296.133 419.947 296C420.579 296 420.579 295 419.947 295C411.934 295.133 403.921 295.3 395.974 296.2C388.293 297.1 380.48 298.6 372.832 296.733C372.234 296.567 371.968 297.533 372.566 297.7Z" fill="#E8E8E8"/>
<path d="M396.373 294.867C409.806 294.167 423.239 293.433 436.672 292.733C437.304 292.7 437.304 291.7 436.672 291.733C423.239 292.433 409.806 293.167 396.373 293.867C395.741 293.9 395.741 294.9 396.373 294.867Z" fill="#E8E8E8"/>
<path d="M357.903 198.633C354.611 199.267 350.588 196.1 350.688 192.6C350.821 188.633 355.775 187.3 358.934 187.267C362.425 187.267 364.885 189.967 364.054 193.5C363.688 195.033 362.724 196.3 361.527 197.267C360.829 197.833 358.003 199.9 357.205 198.9C356.806 198.4 356.107 199.1 356.506 199.6C357.57 200.933 359.765 199.567 360.895 198.933C362.624 197.9 364.187 196.333 364.852 194.4C366.182 190.5 363.821 186.6 359.732 186.3C355.841 186 349.823 187.8 349.723 192.6C349.657 196.8 354.245 200.333 358.202 199.6C358.801 199.5 358.535 198.533 357.903 198.633Z" fill="#E8E8E8"/>
<path d="M102.676 214.333C101.446 215.733 100.382 217.267 99.4839 218.933C99.1847 219.5 100.049 220 100.348 219.433C101.213 217.867 102.21 216.4 103.407 215.033C103.806 214.567 103.108 213.833 102.676 214.333Z" fill="#161616"/>
<path d="M102.643 214.733C103.64 216.133 104.638 217.5 105.635 218.9C106.001 219.433 106.865 218.933 106.5 218.4C105.502 217 104.505 215.633 103.507 214.233C103.108 213.7 102.244 214.2 102.643 214.733Z" fill="#161616"/>
<path d="M102.576 216.7C102.876 228.467 103.142 240.233 103.441 252.033C103.441 252.667 104.438 252.667 104.438 252.033C104.139 240.267 103.873 228.5 103.574 216.7C103.541 216.067 102.543 216.033 102.576 216.7Z" fill="#161616"/>
<path d="M104.538 252.967C119.301 252.967 134.064 252.967 148.827 252.967C149.459 252.967 149.459 251.967 148.827 251.967C134.064 251.967 119.301 251.967 104.538 251.967C103.906 251.967 103.906 252.967 104.538 252.967Z" fill="#161616"/>
<path d="M146.898 251.967C147.929 252.367 148.927 252.767 149.957 253.167C149.824 252.8 149.658 252.433 149.525 252.067C149.026 252.967 148.328 253.667 147.464 254.2C146.632 254.7 147.397 256 148.228 255.5C149.326 254.867 150.223 253.933 150.855 252.833C151.121 252.367 150.855 251.9 150.423 251.733C149.392 251.333 148.395 250.933 147.364 250.533C146.4 250.167 146.001 251.6 146.898 251.967Z" fill="#161616"/>
<path d="M402.258 71.9333C400.928 70.1667 402.824 67.4667 404.885 68.8C405.816 69.4 406.248 70.6333 405.583 71.6C404.985 72.4667 403.755 72.8333 402.824 72.3667C402.258 72.0667 401.76 72.9333 402.325 73.2333C403.688 73.9 405.351 73.5 406.315 72.3C407.346 71 406.98 69.1667 405.716 68.1667C404.486 67.2 402.757 67.2 401.693 68.4C400.729 69.5 400.563 71.2667 401.46 72.4667C401.76 72.9333 402.624 72.4333 402.258 71.9333Z" fill="#FD6F8D"/>
<path d="M429.922 198.7C429.856 197.133 431.02 196.067 432.549 196.067C433.181 196.067 433.68 196.233 434.278 195.967C435.409 195.467 435.841 194.167 436.207 193.067C436.739 191.467 437.138 190.7 439.133 191.2C439.665 191.333 439.997 191.6 440.562 191.4C442.225 190.767 441.227 187.9 443.754 188.367C444.386 188.5 444.652 187.533 444.02 187.4C443.222 187.233 442.458 187.3 441.759 187.8C441.128 188.267 441.061 188.833 440.695 189.433C440.662 190.067 440.23 190.333 439.432 190.233C439.266 190.133 439.066 190.033 438.9 189.967C438.534 189.933 438.335 189.733 437.936 189.767C437.204 189.8 436.639 190.267 436.207 190.8C435.575 191.567 435.409 192.5 435.043 193.433C434.677 194.367 434.311 195.033 433.181 195.133C432.682 195.167 432.217 195 431.718 195.067C429.956 195.333 428.825 196.967 428.892 198.7C428.958 199.367 429.956 199.367 429.922 198.7Z" fill="#FD6F8D"/>
<path d="M114.48 251.067C119.168 241.633 119.899 231 122.659 220.967C123.357 218.4 124.056 215.4 125.984 213.467C128.81 210.633 132.401 212.633 133.565 215.967C134.43 218.5 134.463 221.433 134.629 224.1C134.795 226.967 134.928 229.833 135.095 232.7C135.46 238.833 136.092 245 138.154 250.833C138.353 251.433 139.317 251.167 139.118 250.567C136.957 244.433 136.358 237.933 136.026 231.467C135.859 228.3 135.726 225.1 135.494 221.933C135.294 219.4 135.194 216.633 133.997 214.333C133.066 212.533 131.271 211.067 129.176 211.067C127.015 211.067 125.219 212.567 124.122 214.3C122.692 216.6 122.027 219.5 121.362 222.1C120.631 225 120.032 227.933 119.434 230.867C118.104 237.6 116.741 244.367 113.648 250.567C113.316 251.133 114.18 251.633 114.48 251.067Z" fill="#FD6F8D"/>
<path d="M119.035 209.733C118.37 208.767 119.733 207.467 120.531 208.533C121.296 209.533 119.866 210.533 119.068 209.767C118.603 209.333 117.904 210.033 118.37 210.467C119.068 211.133 120.199 211.2 120.997 210.633C121.894 210 121.994 208.8 121.329 207.933C120.664 207.067 119.434 206.833 118.603 207.567C117.871 208.233 117.638 209.4 118.204 210.233C118.536 210.767 119.401 210.267 119.035 209.733Z" fill="#FD6F8D"/>
<path d="M126.383 205.3C125.851 204.533 127.015 203.833 127.514 204.633C128.046 205.5 126.55 206.467 126.051 205.5C125.752 204.933 124.92 205.433 125.186 206C125.619 206.9 126.782 207.133 127.614 206.633C128.478 206.133 128.877 205 128.345 204.1C127.88 203.333 126.782 202.933 125.984 203.433C125.22 203.933 124.954 205 125.452 205.767C125.885 206.333 126.749 205.833 126.383 205.3Z" fill="#FD6F8D"/>
<path d="M123.49 197.967C123.224 197.2 124.056 196.4 124.721 197.033C125.386 197.667 124.621 198.567 123.856 198.3C123.258 198.1 122.992 199.067 123.59 199.267C125.319 199.833 126.782 197.633 125.419 196.333C124.82 195.733 123.889 195.633 123.191 196.133C122.559 196.6 122.227 197.467 122.526 198.233C122.759 198.833 123.723 198.6 123.49 197.967Z" fill="#FD6F8D"/>
<path d="M136.192 206.867C136.092 206.8 136.225 206.9 136.258 206.967C136.258 207 136.258 207.033 136.258 207.067C136.258 207.1 136.258 207.1 136.258 207.033V207.067C136.325 207.033 136.258 207.067 136.258 207.067C136.225 207.067 136.358 207.067 136.391 207.067C136.491 207.067 136.591 207.1 136.691 207.133C136.558 206.967 136.458 206.8 136.325 206.667C136.325 206.933 136.325 207.2 136.325 207.467C136.458 207.3 136.558 207.133 136.691 207C136.425 207.1 136.159 207.133 135.893 207.067C135.294 206.867 135.028 207.833 135.627 208.033C136.059 208.167 136.558 208.167 136.957 207.967C137.156 207.867 137.322 207.733 137.322 207.5C137.322 207.233 137.322 206.967 137.322 206.7C137.322 206.467 137.156 206.267 136.957 206.233C136.425 206.1 135.793 206.033 135.46 206.567C135.194 206.967 135.228 207.6 135.726 207.8C135.959 207.933 136.258 207.867 136.425 207.633C136.524 207.333 136.458 207 136.192 206.867Z" fill="#FD6F8D"/>
<path d="M191.719 74.1667C191.886 74.2333 191.52 75.9 191.686 76.3C191.919 76.8 192.451 77.1 192.983 77.1667C193.714 77.3 194.346 76.9667 194.945 76.6C195.543 76.2333 196.973 74.9667 197.405 76.3667C197.505 76.6667 197.172 77.4 197.272 77.8C197.571 79.1333 198.835 79.0667 199.733 78.3667C200.065 78.1 200.265 77.7667 200.531 77.4667C200.863 76.6667 201.362 76.5 201.994 76.9667C201.994 77.1667 202.027 77.3667 202.093 77.5333C202.426 78.0333 202.592 78.3667 203.257 78.3333C203.889 78.3 203.889 77.3 203.257 77.3333C203.29 77.3333 202.559 75.8333 202.16 75.6667C201.694 75.4667 201.162 75.6333 200.73 75.9C200.431 76.0667 200.198 76.3333 199.965 76.5667C199.467 77.0667 199.5 77.8 198.702 77.3C197.937 76.8333 198.569 76.1 198.037 75.4333C197.172 74.3333 195.709 74.9333 194.778 75.5333C194.246 75.8667 192.916 77.0667 192.584 75.3C192.551 75.0667 192.75 74.7 192.75 74.4667C192.75 73.9333 192.65 73.6333 192.185 73.4C191.653 73 191.154 73.8667 191.719 74.1667Z" fill="#FD6F8D"/>
<path d="M156.94 152.133C157.339 156.8 157.738 161.467 158.17 166.133C158.237 166.767 159.101 166.767 159.168 166.133C159.168 166.033 159.201 165.9 159.201 165.8C159.267 165.167 158.27 165.167 158.203 165.8C158.203 165.9 158.17 166.033 158.17 166.133C158.503 166.133 158.835 166.133 159.168 166.133C158.769 161.467 158.37 156.8 157.937 152.133C157.871 151.5 156.873 151.467 156.94 152.133Z" fill="#DC1955"/>
<path d="M157.705 152.5C159.101 152.2 161.528 151.767 162.592 152.933C163.557 153.967 163.324 156 163.457 157.4C163.69 160.2 163.922 163 164.155 165.767C164.222 166.4 165.219 166.4 165.153 165.767C164.82 161.767 164.787 157.567 164.122 153.6C163.623 150.5 159.766 151.067 157.439 151.533C156.807 151.667 157.073 152.633 157.705 152.5Z" fill="#DC1955"/>
<path d="M166.217 133.7C167.281 144.367 167.646 155.067 167.314 165.8C167.281 166.433 168.278 166.433 168.311 165.8C168.644 155.1 168.278 144.367 167.214 133.7C167.148 133.067 166.15 133.033 166.217 133.7Z" fill="#DC1955"/>
<path d="M167.414 133.7C168.777 133.9 170.439 133.9 171.703 134.367C173.399 134.967 173.133 138.033 173.299 139.6C173.598 142.633 173.798 145.667 173.997 148.7C174.363 155 174.496 161.3 174.629 167.6C174.629 168.233 175.626 168.233 175.626 167.6C175.46 160.333 175.294 153.033 174.795 145.767C174.562 142.367 174.396 138.933 173.864 135.567C173.399 132.7 169.974 133.067 167.68 132.7C167.048 132.667 166.782 133.6 167.414 133.7Z" fill="#DC1955"/>
<path d="M175.859 127.433C176.99 140.1 178.153 152.733 179.284 165.4C179.35 166.033 180.348 166.033 180.281 165.4C179.151 152.733 177.987 140.1 176.857 127.433C176.823 126.8 175.826 126.8 175.859 127.433Z" fill="#DC1955"/>
<path d="M176.491 127.933C178.087 127.633 179.716 127.533 181.345 127.7C182.709 127.833 183.673 128.1 183.739 129.567C183.773 130.067 183.773 130.6 183.773 131.1C183.872 133.6 183.972 136.1 184.105 138.6C184.537 148.167 185.036 157.7 185.535 167.267C185.568 167.9 186.566 167.9 186.532 167.267C186 156.933 185.468 146.633 185.003 136.3C184.903 134.133 184.803 132 184.737 129.833C184.704 128.867 184.704 127.9 183.806 127.267C182.975 126.7 181.678 126.667 180.714 126.633C179.217 126.533 177.721 126.667 176.225 126.967C175.593 127.1 175.859 128.067 176.491 127.933Z" fill="#DC1955"/>
<path d="M149.791 124.233C148.694 126.4 147.63 128.567 146.533 130.733C146.233 131.3 147.098 131.8 147.397 131.233C148.494 129.067 149.558 126.9 150.656 124.733C150.922 124.167 150.057 123.633 149.791 124.233Z" fill="#161616"/>
<path d="M149.924 125.233C150.39 127.167 151.42 128.867 152.95 130.133C153.449 130.533 154.147 129.833 153.648 129.433C152.252 128.267 151.321 126.767 150.888 125C150.722 124.333 149.758 124.6 149.924 125.233Z" fill="#161616"/>
<path d="M149.226 125.7C149.026 140.3 150.922 154.867 154.878 168.933C155.045 169.567 156.009 169.3 155.843 168.667C151.919 154.7 150.024 140.233 150.223 125.7C150.223 125.067 149.226 125.067 149.226 125.7Z" fill="#161616"/>
<path d="M156.075 169.8C163.856 169.067 171.67 168.667 179.483 168.633C186.765 168.6 194.645 168.3 201.362 171.6C201.927 171.867 202.426 171.033 201.861 170.733C195.344 167.533 187.896 167.6 180.78 167.633C172.534 167.633 164.288 168.033 156.075 168.8C155.444 168.867 155.444 169.867 156.075 169.8Z" fill="#161616"/>
<path d="M197.272 168.167C199.068 169.267 200.797 170.467 202.393 171.8C202.426 171.533 202.459 171.267 202.492 171C201.129 172.033 199.799 173.067 198.436 174.1C197.937 174.5 198.436 175.367 198.935 174.967C200.298 173.933 201.628 172.9 202.991 171.867C203.224 171.7 203.357 171.3 203.091 171.067C201.395 169.667 199.633 168.4 197.771 167.3C197.206 167 196.707 167.833 197.272 168.167Z" fill="#161616"/>
<path d="M152.318 142.6C152.817 143.2 153.316 143.8 153.815 144.4C154.014 144.633 154.446 144.567 154.613 144.3C157.273 139.067 159.899 133.8 162.593 128.567C163.291 127.233 164.255 128.333 165.253 128.7C165.884 128.933 166.549 128.867 167.181 128.633C168.777 128.033 169.841 126.367 170.573 124.9C171.77 122.4 172.834 119.8 173.997 117.267C174.297 116.567 174.629 115.867 174.928 115.2C175.095 114.8 175.294 113.967 175.627 113.667C176.657 112.733 179.184 114.867 180.049 115.4C181.479 116.267 183.54 118.2 185.402 117.7C186.799 117.333 187.464 115.8 187.863 114.533C189.791 108.833 192.252 103.667 196.042 98.9667C196.341 98.6 196.075 97.9667 195.543 98.1333C193.814 98.7 192.252 99.5667 190.822 100.667C190.356 101.033 190.955 101.7 191.42 101.467C192.717 100.833 194.047 100.167 195.344 99.5333C195.111 99.4333 194.845 99.3333 194.612 99.2333C195.011 101.233 195.41 103.233 195.776 105.233C195.909 105.867 196.873 105.6 196.74 104.967C196.341 102.967 195.942 100.967 195.577 98.9667C195.51 98.6333 195.111 98.5333 194.845 98.6667C193.548 99.3 192.218 99.9667 190.922 100.6C191.121 100.867 191.321 101.133 191.52 101.4C192.817 100.367 194.213 99.6333 195.809 99.1C195.643 98.8333 195.477 98.5333 195.311 98.2667C192.418 101.867 190.024 105.833 188.295 110.133C187.829 111.267 187.43 112.433 187.065 113.6C186.765 114.533 186.3 116.533 185.07 116.733C183.673 116.967 181.878 115.367 180.747 114.667C179.617 113.967 178.519 113.2 177.356 112.567C176.026 111.867 175.194 112.133 174.529 113.433C173.266 115.933 172.235 118.6 171.071 121.167C170.207 123.1 169.11 127 166.749 127.633C165.153 128.067 163.69 125.667 162.26 127.067C161.429 127.867 160.997 129.367 160.498 130.367C159.733 131.867 159.002 133.333 158.237 134.833C156.741 137.8 155.211 140.767 153.715 143.733C153.981 143.7 154.247 143.667 154.513 143.633C154.014 143.033 153.515 142.433 153.017 141.833C152.584 141.4 151.886 142.1 152.318 142.6Z" fill="#161616"/>
<path d="M297.055 59.7667C293.797 57.9667 292.4 53.4 294.462 50.1667C296.557 46.8667 301.644 46.2667 304.603 48.7C307.629 51.2333 307.662 56.4333 304.769 59.0667C301.777 61.8333 296.756 61.1 294.296 58.0333C293.897 57.5333 293.198 58.2333 293.597 58.7333C295.892 61.5333 299.981 62.5333 303.34 61.1333C306.598 59.7667 308.294 56.2333 307.862 52.8C307.429 49.2667 304.803 46.6333 301.278 46.2333C297.92 45.8333 294.329 47.5 293.065 50.7667C291.669 54.3667 293.232 58.7333 296.59 60.5667C297.122 60.9333 297.621 60.0667 297.055 59.7667Z" fill="#DC1955"/>
<path d="M311.486 65.9C310.089 63.3 313.68 60.4333 315.476 63.2333C317.072 65.7 313.148 67.5667 311.885 65.2667C311.586 64.7 310.721 65.2 311.02 65.7667C311.818 67.2333 313.68 67.6333 315.143 67C316.872 66.2667 317.305 64.2667 316.34 62.7333C315.343 61.1333 313.281 60.5 311.685 61.6333C310.189 62.7 309.724 64.8 310.588 66.4333C310.954 66.9667 311.818 66.4667 311.486 65.9Z" fill="#DC1955"/>
<path d="M293.996 318.033C320.164 318.033 346.299 318.033 372.466 318.033C373.098 318.033 373.098 317.033 372.466 317.033C346.299 317.033 320.164 317.033 293.996 317.033C293.331 317.033 293.331 318.033 293.996 318.033Z" fill="#161616"/>
<path d="M388.892 318.033C393.879 318.033 398.867 318.033 403.854 318.033C404.486 318.033 404.486 317.033 403.854 317.033C398.867 317.033 393.879 317.033 388.892 317.033C388.26 317.033 388.26 318.033 388.892 318.033Z" fill="#161616"/>
<path d="M218.619 333.167C236.008 333.167 253.431 333.167 270.821 333.167C271.453 333.167 271.453 332.167 270.821 332.167C253.431 332.167 236.008 332.167 218.619 332.167C217.987 332.167 217.987 333.167 218.619 333.167Z" fill="#161616"/>
<path d="M270.156 329.167C285.218 329.167 300.314 329.167 315.376 329.167C316.008 329.167 316.008 328.167 315.376 328.167C300.314 328.167 285.218 328.167 270.156 328.167C269.524 328.167 269.524 329.167 270.156 329.167Z" fill="#161616"/>
<path d="M148.627 326.433C153.183 326.433 157.705 326.433 162.26 326.433C163.224 326.433 163.224 324.933 162.26 324.933C157.705 324.933 153.183 324.933 148.627 324.933C147.663 324.933 147.663 326.433 148.627 326.433Z" fill="#161616"/>
<path d="M166.915 326.433C168.478 326.433 170.007 326.433 171.57 326.433C172.534 326.433 172.534 324.933 171.57 324.933C170.007 324.933 168.478 324.933 166.915 324.933C165.951 324.933 165.951 326.433 166.915 326.433Z" fill="#161616"/>
<path d="M129.276 265.9C129.908 266 130.772 266.8 131.437 270.6C133.399 270.733 135.361 270.867 137.322 271C138.952 269.633 140.581 268.267 142.21 266.867C142.443 268.2 142.742 270.167 143.008 272.567C143.607 278.133 143.241 279.467 143.607 282.567C143.773 283.933 144.538 289.7 148.095 295.3C150.822 299.6 152.617 299.733 154.745 303.933C156.408 307.233 156.907 310.333 157.106 312.367C157.439 312.333 161.661 312 164.355 315.3C165.585 316.833 166.948 319.7 165.917 321.967C164.92 324.167 162.626 323.833 158.469 327.467C157.006 328.733 155.61 330 155.942 331C156.275 332.033 158.07 331.833 161.229 333.533C162.892 334.433 163.69 334.9 163.956 335.7C164.953 338.6 158.636 343.067 157.705 343.733C154.646 345.867 150.922 347.533 150.456 346.867C149.758 345.867 157.272 340.367 156.142 338.233C155.311 336.633 150.589 338.633 149.492 336.867C148.295 334.933 152.518 330.1 154.779 327.467C159.134 322.4 161.894 321.133 161.429 319.433C160.93 317.633 157.139 316.433 155.178 317.667C153.515 318.7 153.848 321.033 153.216 322.567C152.019 325.5 146.3 327.9 126.616 325.7C126.882 325.167 127.281 324.533 127.78 323.933C129.475 321.967 131.603 321.267 132.667 321C132.368 320.5 130.639 317.533 131.703 313.933C132.501 311.2 134.396 309.7 135.028 309.233C133.698 306.6 132.368 303.733 131.105 300.6C130.307 298.567 129.575 296.6 128.943 294.7C127.081 294.7 124.92 294.367 123.258 292.933C120.764 290.733 121.761 288.033 119.168 286.067C116.741 284.2 113.848 285.033 113.349 283.433C113.116 282.667 113.582 281.767 114.081 281.3C115.344 280.1 117.605 280.7 120.066 281.367C121.761 281.833 124.189 282.7 126.882 284.333C125.984 283.033 124.355 280.3 124.255 276.667C124.022 271.2 127.347 265.633 129.276 265.9Z" fill="#161616"/>
<path d="M128.112 289.833C125.818 290.833 126.682 297.6 127.514 303.767C128.046 307.667 128.943 312.833 130.639 318.867C125.984 322.467 126.217 323.5 126.35 323.767C126.782 324.667 129.874 324.133 130.839 323.967C131.869 323.8 133.332 323.533 134.164 323C136.524 321.433 135.294 316.667 134.563 309.067C133.499 298.067 134.762 293.467 131.238 290.833C130.772 290.467 129.243 289.333 128.112 289.833Z" fill="#161616"/>
<path d="M105.369 303.633C105.469 303.6 106.333 303.167 106.3 303.133C106.234 303.1 106.234 303.633 106.234 303.767C106.2 304.2 106.067 304.733 106.134 305.2C106.267 305.867 106.766 306.2 107.431 306.133C107.796 306.1 108.062 305.933 108.362 305.7C108.428 305.633 108.894 305.233 108.927 305.233C108.993 305.267 108.993 306 109.027 306.067C109.16 306.7 109.625 307.233 110.323 307.167C110.955 307.1 110.955 306.1 110.323 306.167C109.991 306.2 109.891 304.4 109.326 304.2C109.093 304.1 108.827 304.167 108.628 304.267C108.129 304.5 107.397 305.567 107.165 304.633C106.998 303.933 107.697 302.933 107.065 302.333C106.466 301.767 105.469 302.433 104.904 302.733C104.305 303.067 104.804 303.933 105.369 303.633Z" fill="white"/>
<path d="M128.245 276.767C128.81 276.233 129.775 276.367 130.174 277.033C130.44 277.433 131.071 277.067 130.805 276.667C130.14 275.6 128.611 275.4 127.713 276.233C127.381 276.567 127.913 277.1 128.245 276.767Z" fill="white"/>
<path d="M135.361 276.533C135.959 275.933 136.957 275.9 137.588 276.467C137.954 276.8 138.486 276.267 138.12 275.933C137.189 275.067 135.726 275.1 134.829 276C134.496 276.333 135.028 276.867 135.361 276.533Z" fill="white"/>
<path d="M129.542 280.433C129.176 281.167 127.613 283.7 129.309 283.9C130.007 283.967 130.672 283.333 131.071 282.867C131.637 282.2 131.969 281.367 132.268 280.567C132.501 279.967 131.537 279.7 131.304 280.3C130.938 281.233 130.539 282.1 129.741 282.767C129.575 282.9 129.475 283.133 129.542 282.833C129.575 282.633 129.675 282.433 129.775 282.267C129.974 281.833 130.174 281.4 130.406 280.967C130.672 280.333 129.808 279.833 129.542 280.433Z" fill="#DC1955"/>
<path d="M130.44 280.967C130.872 280.767 131.204 280.5 131.603 280.233C131.47 280.267 131.337 280.267 131.204 280.3C131.238 280.3 131.271 280.333 131.304 280.333C131.204 280.267 131.105 280.167 131.005 280.1C131.005 279.9 130.972 279.9 130.839 280.133C130.739 280.233 130.672 280.333 130.573 280.467C130.406 280.667 130.273 280.867 130.14 281.067C129.841 281.533 129.575 282 129.309 282.5C129.01 283.067 129.874 283.567 130.174 283C130.473 282.467 130.772 281.9 131.105 281.4C131.371 281 131.936 280.567 131.969 280.067C132.002 279.7 131.703 279.367 131.371 279.367C131.138 279.333 130.972 279.467 130.805 279.6C130.506 279.833 130.24 280 129.874 280.167C129.376 280.333 129.874 281.2 130.44 280.967Z" fill="#DC1955"/>
<path d="M129.442 280.4C130.539 280.433 131.57 279.633 131.77 278.533C131.836 278.067 131.138 277.867 131.038 278.333C130.905 279.133 130.24 279.7 129.442 279.667C128.943 279.633 128.943 280.367 129.442 280.4Z" fill="white"/>
<path d="M131.138 278.3C131.271 279.633 132.435 280.7 133.798 280.6C134.263 280.567 134.263 279.8 133.798 279.833C132.867 279.9 131.969 279.267 131.869 278.3C131.836 277.833 131.105 277.833 131.138 278.3Z" fill="white"/>
<path d="M333.198 215.467C322.193 228.833 311.22 242.167 300.214 255.533C317.471 259.833 334.728 264.133 351.985 268.433C352.55 261.267 352.683 246.633 344.736 231.333C341.145 224.4 336.856 219.2 333.198 215.467Z" fill="#FD6F8D"/>
<path d="M296.989 258.233C314.412 262.633 331.868 267 349.291 271.4C349.092 274.2 348.527 278.1 346.864 282.433C344.902 287.633 342.143 291.4 340.148 293.733C325.784 281.9 311.386 270.067 296.989 258.233Z" fill="#DC1955"/>
<path d="M294.429 317.533C326.436 317.533 352.384 290.864 352.384 257.967C352.384 225.069 326.436 198.4 294.429 198.4C262.421 198.4 236.474 225.069 236.474 257.967C236.474 290.864 262.421 317.533 294.429 317.533Z" stroke="#161616" stroke-width="3" stroke-miterlimit="10"/>
<path d="M295.16 256.7C295.293 256.567 295.626 256.667 295.692 256.833C295.726 256.7 295.726 256.567 295.759 256.433C295.726 256.5 295.626 256.467 295.593 256.433C295.327 256.333 295.061 256.533 294.994 256.767C294.928 257.033 295.094 257.3 295.327 257.367C295.726 257.5 296.191 257.4 296.457 257.1C296.79 256.767 296.69 256.3 296.391 256C295.859 255.467 295.027 255.433 294.495 255.933C293.963 256.4 294.662 257.133 295.16 256.7Z" fill="#161616"/>
<path d="M330.206 211.5C319.599 226.967 308.194 241.9 296.058 256.2C295.659 256.7 296.357 257.4 296.756 256.9C308.959 242.533 320.397 227.567 331.07 212C331.436 211.467 330.572 210.967 330.206 211.5Z" fill="#161616"/>
<path d="M295.559 257.333C314.312 260.7 332.932 264.667 351.419 269.267C352.051 269.433 352.317 268.467 351.685 268.3C333.198 263.733 314.578 259.733 295.825 256.367C295.194 256.267 294.928 257.233 295.559 257.333Z" fill="#161616"/>
<path d="M295.493 257.167C309.691 270.2 324.321 282.733 339.383 294.8C339.882 295.2 340.58 294.5 340.081 294.1C325.052 282.067 310.389 269.5 296.191 256.467C295.726 256.033 294.994 256.733 295.493 257.167Z" fill="#161616"/>
<path opacity="0.21" d="M294.462 198.533C295.692 204.033 296.524 211.867 293.498 219.867C286.615 238.133 266.632 239.033 259.051 253.933C254.928 262.033 253.897 275.433 266.931 298.767C266.931 302.7 266.931 306.6 266.931 310.533C263.074 308.367 258.818 305.433 254.728 301.433C239.201 286.2 236.807 266.3 236.308 258.733C236.341 253.267 237.106 235.5 250.173 219.633C253.132 216.033 263.639 203.7 281.528 199.733C286.748 198.6 291.27 198.433 294.462 198.533Z" fill="#6D6C6C"/>
<path d="M196.042 292C198.336 297.8 200.63 303.567 202.891 309.367C201.528 312.367 199.433 316.8 196.541 322.1C192.75 329.033 190.955 331.367 191.553 332.067C192.418 333.067 198.037 330.567 219.849 314.2C218.486 310.4 217.089 306.567 215.726 302.667C213.731 297 211.802 291.4 209.907 285.833C205.319 287.9 200.697 289.967 196.042 292Z" fill="#161616"/>
<path d="M257.355 190.4C261.046 196.7 258.419 206.467 258.053 207.767C256.025 215.333 251.436 216.067 234.612 232.033C224.072 242.067 221.046 246.133 218.818 250.6C215.792 256.733 214.695 262.433 214.263 266.3C215.626 274.3 216.989 282.267 218.353 290.267C214.861 292.533 209.974 295.233 203.723 297.133C199.334 298.467 195.344 299.133 192.052 299.433C188.993 291.667 184.604 277.333 186.965 259.9C189.824 238.667 201.029 224.767 210.339 213.233C224.504 195.7 240.896 184.333 254.928 177C254.462 179.5 254.196 183.1 255.593 186.9C256.258 188.7 256.989 189.767 257.355 190.4Z" fill="#DC1955"/>
<path opacity="0.2" d="M251.835 181.367C247.679 192.633 242.692 201.367 238.17 207.933C224.703 227.567 214.762 229.167 206.815 247.4C201.728 259.067 200.63 270.2 200.298 274.2C199.467 283.5 200.198 291.4 201.129 297.2C202.991 297.133 205.319 296.867 207.879 296.133C212.833 294.7 216.358 292.2 218.386 290.433C217.821 287.733 216.989 283.733 216.058 278.833C214.795 272.033 214.163 268.6 214.163 266.167C214.163 259 217.189 253.6 219.649 249.3C220.813 247.267 224.205 241.633 236.075 230.733C248.61 219.233 253.83 217.233 257.122 208.8C259.084 203.767 259.051 199.767 259.017 198.467C258.718 189.7 253.797 183.567 251.835 181.367Z" fill="#6D6C6C"/>
<path opacity="0.27" d="M258.984 201.2C252.168 206.933 242.426 215.5 231.221 226.5C214.961 242.5 212.068 247.167 210.805 249.5C207.28 256 201.229 270.8 207.214 295.5C209.176 294.7 211.204 293.8 213.332 292.767C215.028 291.933 216.657 291.067 218.186 290.233C216.856 282.433 215.526 274.633 214.196 266.8C214.296 263.867 214.762 259.467 216.723 254.567C217.189 253.4 218.552 250.167 221.977 245.5C224.703 241.767 227.33 239.233 232.484 234.333C236.607 230.4 240.597 226.267 244.886 222.533C252.6 215.833 256.058 214 257.92 208.833C259.018 205.8 259.084 203.033 258.984 201.2Z" fill="#6D6C6C"/>
<path d="M232.65 291.267C237.704 295.167 242.758 299.067 247.812 302.967C241.096 320.033 241.096 324.467 242.459 325.233C244.72 326.533 252.135 318.5 256.358 312.6C260.115 307.3 262.309 302.333 263.573 298.867C261.511 296.233 259.151 293.5 256.524 290.7C252.9 286.833 249.342 283.533 245.984 280.667C241.561 284.233 237.106 287.733 232.65 291.267Z" fill="#161616"/>
<path d="M284.52 190.4C287.48 198.267 285.684 205.867 285.219 207.767C281.827 221.9 269.225 233.567 264.77 237.633C257.156 244.633 250.838 248.133 247.314 257.467C246.083 260.667 245.585 263.5 245.385 265.433C247.812 271 250.24 276.567 252.667 282.1C251.071 285.533 247.58 291.867 240.531 296.7C237.538 298.767 234.612 300.033 232.218 300.867C227.164 295.7 213.465 280.367 214.197 259.867C214.762 244.133 223.64 231.467 230.489 221.633C237.372 211.8 239.134 213 247.812 200.433C255.327 189.533 256.757 184.567 263.074 182.367C269.425 180.133 278.735 181.367 282.825 186.9C283.623 188.067 283.988 189.033 284.52 190.4Z" fill="#DC1955"/>
<path opacity="0.24" d="M269.059 188.9C269.425 191.967 269.691 197.233 268.161 203.3C262.841 223.933 243.357 225.733 233.98 248.067C232.152 252.433 227.896 263 231.254 275.233C233.847 284.767 239.899 290.967 243.324 293.967C244.654 293.267 246.848 291.867 248.777 289.4C251.171 286.333 251.935 283.2 252.201 281.633C249.841 275.933 247.48 270.2 245.152 264.5C245.585 261.967 246.482 258.333 248.577 254.433C251.437 249.033 254.895 246.3 259.35 242.267C267.53 234.9 272.75 230.233 277.272 223.8C280.131 219.7 284.288 213.667 285.651 204.833C286.781 197.633 285.584 191.6 284.554 187.967C279.4 188.3 274.213 188.6 269.059 188.9Z" fill="#6D6C6C"/>
<path opacity="0.25" d="M285.983 199.6C283.356 204.433 278.834 211.967 271.852 220.033C258.419 235.533 249.309 238.767 243.058 250.7C240.364 255.833 237.904 264.3 240.93 277.9C244.753 279.433 248.61 280.967 252.434 282.533C250.007 276.8 247.613 271.1 245.186 265.367C245.418 262.533 246.117 258.333 248.477 254C250.572 250.133 252.9 248.1 258.02 243.433C266.499 235.7 270.755 231.833 272.484 229.9C276.44 225.533 280.763 220.633 283.489 213.067C285.484 207.7 285.917 202.867 285.983 199.6Z" fill="#6D6C6C"/>
<path d="M205.053 143.933C204.155 141.933 202.592 139.033 199.733 136.4C196.142 133.1 191.121 130.733 190.323 131.7C189.991 132.1 190.024 133.5 196.075 140.2" fill="white"/>
<path d="M205.053 143.933C204.155 141.933 202.592 139.033 199.733 136.4C196.142 133.1 191.121 130.733 190.323 131.7C189.991 132.1 190.024 133.5 196.075 140.2" stroke="#161616" stroke-width="2" stroke-miterlimit="10"/>
<path d="M192.518 138.467C191.221 139.267 188.927 140.967 187.696 143.9C187.231 145.033 186.632 146.5 187.065 148.2C187.829 151.133 191.354 152.367 191.653 152.5C193.083 153 193.449 152.633 194.479 153.233C196.142 154.2 196.075 155.5 197.306 156.7C199.833 159.133 204.953 158.167 205.186 157.133C205.319 156.567 203.856 156.033 203.989 155C204.055 154.367 204.687 154.1 205.119 153.7C207.447 151.567 205.219 145.333 204.82 144.3C204.454 143.333 203.889 141.933 202.892 140.367" fill="white"/>
<path d="M192.518 138.467C191.221 139.267 188.927 140.967 187.696 143.9C187.231 145.033 186.632 146.5 187.065 148.2C187.829 151.133 191.354 152.367 191.653 152.5C193.083 153 193.449 152.633 194.479 153.233C196.142 154.2 196.075 155.5 197.306 156.7C199.833 159.133 204.953 158.167 205.186 157.133C205.319 156.567 203.856 156.033 203.989 155C204.055 154.367 204.687 154.1 205.119 153.7C207.447 151.567 205.219 145.333 204.82 144.3C204.454 143.333 203.889 141.933 202.892 140.367" stroke="#161616" stroke-width="2" stroke-miterlimit="10"/>
<path d="M186.499 147.767C187.264 149.767 188.727 151.533 190.755 152.333C192.817 153.167 194.346 152.067 194.38 149.867C194.38 149.233 193.382 149.233 193.382 149.867C193.349 152.433 190.822 151.5 189.558 150.467C188.594 149.7 187.896 148.667 187.464 147.5C187.231 146.9 186.267 147.133 186.499 147.767Z" fill="#161616"/>
<path d="M188.993 145.033C189.991 146.9 191.321 148.967 193.382 149.733C195.244 150.433 196.341 149.3 196.541 147.533C196.607 146.9 195.61 146.9 195.543 147.533C195.244 150.167 192.684 148.333 191.786 147.4C190.988 146.567 190.39 145.567 189.858 144.533C189.558 143.967 188.694 144.467 188.993 145.033Z" fill="#161616"/>
<path d="M191.986 140.533C192.584 141.867 193.183 143.233 194.014 144.433C194.579 145.267 195.377 146.467 196.474 146.667C199.068 147.167 198.237 143.467 197.738 142.2C197.505 141.6 196.541 141.867 196.774 142.467C197.006 143.033 197.505 144.2 197.306 144.833C196.74 146.667 195.211 144.4 194.878 143.933C194.047 142.733 193.449 141.367 192.85 140.033C192.584 139.433 191.72 139.933 191.986 140.533Z" fill="#161616"/>
<path d="M192.484 139.033C193.482 138.533 194.712 139.433 195.41 140.1C196.109 140.767 196.574 141.633 196.94 142.5C197.173 143.1 198.137 142.833 197.904 142.233C197.073 140.167 194.612 136.867 191.986 138.167C191.42 138.433 191.919 139.3 192.484 139.033Z" fill="#161616"/>
<path d="M264.604 128.8C265.668 131.967 264.038 134.667 259.483 142.8C251.836 156.333 251.37 157.533 249.608 159.667C245.452 164.667 243.091 167.5 238.735 169.333C230.788 172.667 221.977 169.733 217.156 167.9C212.667 166.167 209.342 163.933 207.181 162.267C205.718 161.067 204.587 160.133 203.856 159.567C202.326 158.333 201.628 157.8 201.03 156.733C200.996 156.7 200.431 155.667 200.298 154.5C199.799 150.933 203.324 147.933 203.59 147.7C199.367 148.7 197.904 148.5 197.638 147.9C197.006 146.567 201.595 141.667 204.82 142.767C206.35 143.267 207.114 145 207.68 146.267C208.777 148.667 208.644 150.9 208.511 152.033C210.539 153.433 213.432 155.067 217.123 156.167C224.404 158.3 230.655 157.167 233.748 156.367C235.443 153.633 238.203 149.167 241.561 143.6C250.738 128.333 253.166 123.5 257.388 123.433C260.547 123.4 263.673 126.033 264.604 128.8Z" fill="white" stroke="#161616" stroke-width="2" stroke-miterlimit="10"/>
<path d="M203.291 148.567C200.431 148.433 200.032 152.133 199.666 154.233C199.999 154.267 200.331 154.333 200.631 154.367C200.664 153.033 201.262 151.933 201.894 150.8C202.227 150.233 201.362 149.733 201.03 150.3C199.733 152.4 198.935 155 200.73 157.067C200.963 156.833 201.196 156.6 201.429 156.367C200.93 155.933 200.664 155.367 200.631 154.667C200.298 154.7 199.966 154.767 199.666 154.8C199.833 155.333 200.032 155.833 200.298 156.333C200.597 156.9 201.462 156.4 201.163 155.833C200.93 155.433 200.73 155 200.631 154.533C200.498 154 199.6 154.1 199.666 154.667C199.766 155.633 200.065 156.367 200.764 157.067C201.229 157.533 201.894 156.833 201.462 156.367C199.999 154.667 200.93 152.5 201.927 150.8C201.628 150.633 201.362 150.467 201.063 150.3C200.331 151.6 199.7 152.833 199.666 154.367C199.633 154.933 200.564 155.067 200.631 154.5C200.897 152.967 201.129 149.5 203.291 149.567C203.922 149.6 203.922 148.6 203.291 148.567Z" fill="white"/>
<path opacity="0.21" d="M259.516 124.8C257.422 130.433 254.03 138.467 248.677 147.567C243.224 156.867 240.364 161.533 235.443 164C225.335 169.033 209.741 165.633 204.488 156C202.892 153.067 202.526 150.1 202.526 147.867C201.262 148.3 199.301 148.767 197.405 148.033C193.149 146.333 192.75 139.967 190.489 140.033C188.993 140.1 187.896 142.933 187.497 143.967C187.131 144.9 186.533 146.433 186.898 148.033C187.43 150.4 189.924 152.267 193.05 152.867C194.679 153.667 195.71 154.567 196.341 155.267C197.439 156.467 197.738 157.4 198.902 157.967C199.932 158.467 201.03 158.4 201.761 158.267C203.324 159.533 205.784 161.433 208.976 163.4C215.826 167.6 224.105 172.667 233.482 170.933C237.904 170.133 240.93 168.1 242.792 166.867C245.817 164.833 249.076 161.767 255.26 150.6C257.821 145.967 260.979 139.8 264.138 132.2C264.271 131.867 265.003 129.9 263.972 127.833C262.708 125.1 259.683 124.8 259.516 124.8Z" fill="#6D6C6C"/>
<path opacity="0.22" d="M196.607 147.967C196.142 148.3 196.341 148.967 195.776 149.467C195.377 149.8 194.845 149.8 194.513 149.8C194.513 150.267 194.446 150.867 194.08 151.4C193.615 152.067 192.983 152.2 193.016 152.467C193.083 152.767 194.014 152.6 194.912 153.1C195.543 153.467 195.942 154.033 196.175 154.467C198.37 152.367 200.564 150.3 202.759 148.2C201.096 148.833 199.866 148.733 199.035 148.533C197.971 148.2 197.173 147.567 196.607 147.967Z" fill="#6D6C6C"/>
<path d="M264.338 122.267C262.11 124.5 260.946 127.033 258.685 132.1C256.89 136.067 253.997 142.7 253.033 151.533C251.969 161.4 254.462 163.633 252.467 170.967C250.971 176.5 248.145 180.567 246.05 183.033C248.743 185.733 253.631 189.9 260.913 192.467C273.249 196.8 284.088 193.533 287.646 192.267C290.605 184.267 293.531 176.267 296.49 168.3C296.524 161.533 296.79 155.767 297.056 151.3C297.721 140.633 298.818 132.467 299.516 127.5C300.314 121.667 301.145 116.767 301.777 113.167C294.296 113.567 288.111 114.433 283.689 115.233C269.192 117.9 265.767 120.833 264.338 122.267Z" fill="white" stroke="#161616" stroke-width="2" stroke-miterlimit="10"/>
<path opacity="0.19" d="M281.96 115.467C283.456 119.033 285.385 124.8 285.817 132.033C286.848 149.233 278.569 162.7 272.284 172.9C269.425 177.533 265.003 183.967 258.452 190.933C260.979 192.267 264.604 193.767 269.159 194.5C277.405 195.833 284.121 193.833 287.446 192.567C290.239 184.5 292.999 176.467 295.792 168.4C295.958 162.9 296.258 157.2 296.69 151.4C297.687 137.867 299.317 125.167 301.312 113.367C294.861 114.067 288.411 114.767 281.96 115.467Z" fill="#6D6C6C"/>
<path opacity="0.11" d="M287.912 114.433C290.306 120.633 292.8 129.667 292.234 140.533C290.638 170.767 266.765 189.067 262.642 192.133C265.169 193.033 268.594 193.967 272.75 194.233C278.934 194.633 283.955 193.367 287.047 192.3C290.106 184.233 293.199 176.2 296.258 168.133C296.258 160.767 296.524 152.9 297.155 144.567C298.02 133.333 299.45 122.933 301.179 113.533C296.756 113.833 292.334 114.133 287.912 114.433Z" fill="#6D6C6C"/>
<path d="M300.547 112.733C303.24 113.733 307.197 115.667 310.056 119.567C313.248 123.933 313.946 129.2 312.118 145.9C310.422 161.433 308.959 164.767 308.394 174.1C307.762 184.367 308.726 192.767 309.624 198.133C313.414 197.233 317.205 196.333 320.995 195.433C325.118 196.533 327.612 198.567 328.842 199.8C330.073 201 332.666 203.533 331.935 205.6C331.469 206.933 329.773 207.6 329.042 207.867C327.612 208.433 326.415 208.367 325.118 208.267C322.359 208.1 319.599 208 316.839 207.867C315.409 207.8 313.348 207.733 310.854 207.867C314.212 210.767 315.642 212.633 315.21 213.467C314.611 214.567 310.621 213.8 303.207 211.2C302.874 208.5 302.342 204.4 301.544 199.4C299.483 186.333 297.986 181.667 296.989 174.733C295.958 167.567 296.291 161.1 296.989 148.2C297.521 139.067 298.485 127 300.547 112.733Z" fill="white" stroke="#161616" stroke-width="2" stroke-miterlimit="10"/>
<path d="M315.975 203.433C318.535 202.367 321.195 202.967 323.655 204.067C325.75 204.967 327.812 206.067 329.441 207.667C329.906 208.1 330.605 207.4 330.139 206.967C328.244 205.133 325.883 203.9 323.456 202.933C320.962 201.9 318.269 201.433 315.675 202.5C315.143 202.7 315.409 203.667 315.975 203.433Z" fill="#161616"/>
<path d="M319.233 200.367C323.655 199.5 328.909 202.133 331.336 205.9C331.702 206.433 332.566 205.933 332.201 205.4C329.474 201.233 323.888 198.467 318.967 199.433C318.335 199.533 318.601 200.5 319.233 200.367Z" fill="#161616"/>
<path d="M323.057 198.067C324.819 198.133 326.349 198.9 327.878 199.733C328.443 200.033 328.942 199.167 328.377 198.867C326.681 197.967 324.985 197.133 323.057 197.067C322.425 197.033 322.425 198.033 323.057 198.067Z" fill="#161616"/>
<path opacity="0.16" d="M301.012 113.533C302.675 117.3 305.035 123.433 306.232 131.3C309.125 150.567 302.01 160.6 303.273 181.433C303.572 186.6 304.537 194.3 307.596 203.667C310.256 202.8 314.312 201.933 319.067 202.467C322.425 202.867 324.088 203.067 325.75 204.267C327.413 205.467 328.377 207.067 330.073 206.967C330.738 206.933 331.635 206.633 332.001 205.933C332.899 204.3 330.438 201.5 329.607 200.567C328.41 199.2 325.95 196.867 321.428 195.5C317.504 196.3 313.581 197.1 309.657 197.9C308.892 194.5 307.828 188.833 307.729 181.8C307.629 175.8 308.693 168.533 310.854 154.2C311.253 151.533 311.752 146.167 312.783 135.4C313.115 131.867 313.381 128.7 312.184 124.8C311.586 122.833 310.123 118.367 305.8 115.567C303.971 114.3 302.209 113.8 301.012 113.533Z" fill="#6D6C6C"/>
<path opacity="0.22" d="M308.294 207.667C308.726 208.733 309.657 210.567 311.552 212C312.716 212.867 314.745 213.933 315.11 213.5C315.576 212.967 313.813 210.033 311.087 208.567C310.056 208 309.025 207.767 308.294 207.667Z" fill="#6D6C6C"/>
<path opacity="0.4" d="M312.018 140.967C308.992 149.3 305.368 162.667 306.365 179.167C306.864 187.6 308.493 194.867 310.223 200.633C308.493 194.033 307.995 188.567 307.828 184.833C307.429 174.867 309.225 169.267 311.087 150.967C311.553 146.733 311.852 143.233 312.018 140.967Z" fill="#6D6C6C"/>
<path opacity="0.22" d="M318.734 199.6C318.668 199.2 321.993 197.667 325.285 198.4C329.707 199.4 331.768 204.067 332.134 204.967C330.571 203.2 328.044 200.9 324.387 200.033C321.295 199.333 318.768 199.933 318.734 199.6Z" fill="#6D6C6C"/>
<path d="M252.101 105.9C250.705 107.2 250.406 109.933 249.84 115.3C249.209 121.467 248.943 124.6 250.239 126.167C252.6 129.033 257.687 129.2 261.212 127.633C265.368 125.767 266.798 121.733 267.164 120.733C268.793 116.1 268.261 109.1 263.34 105.9C260.015 103.7 254.861 103.333 252.101 105.9Z" fill="#FD6F8D"/>
<path d="M259.284 110.767C259.782 113.167 262.442 113.367 264.703 117.2C266.333 119.967 266.665 122.8 266.698 124.833C268.727 124.8 272.484 124.4 276.54 122.3C279.699 120.633 281.827 118.533 283.057 117.1C282.226 115.733 280.996 113.733 279.533 111.333C273.215 101.167 272.284 100.367 271.021 100.033C265.9 98.8 258.319 106.3 259.284 110.767Z" fill="white" stroke="#161616" stroke-width="2" stroke-miterlimit="10"/>
<path d="M269.624 106.733C268.095 109.967 266.532 113.167 264.404 116.067C264.67 116.033 264.936 116 265.202 115.967C265.002 115.733 264.803 115.467 264.637 115.233C264.603 115.433 264.57 115.633 264.57 115.833C265.435 115.1 266.1 114.3 266.698 113.333C266.399 113.167 266.133 113 265.834 112.833C265.368 113.833 264.77 114.433 263.805 114.867C264.005 115.133 264.204 115.4 264.404 115.667C266.133 114.033 267.696 112.233 269.092 110.3C269.458 109.767 268.593 109.267 268.228 109.8C266.898 111.667 265.368 113.4 263.706 114.967C263.273 115.367 263.839 115.967 264.304 115.767C265.401 115.267 266.199 114.467 266.698 113.367C266.964 112.8 266.199 112.3 265.834 112.867C265.268 113.733 264.637 114.467 263.872 115.167C263.706 115.3 263.672 115.6 263.805 115.767C264.105 116.233 264.138 116.3 264.537 116.7C264.77 116.967 265.135 116.833 265.335 116.6C267.463 113.733 269.026 110.5 270.555 107.267C270.755 106.667 269.89 106.167 269.624 106.733Z" fill="#161616"/>
<path d="M237.405 81.1334C235.875 83.9667 236.241 86.8334 236.973 92.4334C237.837 98.7667 238.968 104.067 240.331 107.567C240.53 108.1 241.062 108.4 241.628 108.333C242.359 108.267 243.456 107.7 244.088 107.5C244.886 108.933 246.216 110.867 248.278 112.667C252.367 116.2 256.856 117.033 258.851 117.267C260.813 116.533 265.667 114.367 268.893 109.167C271.021 105.7 271.453 102.5 271.553 101.767C272.118 96.9667 270.522 93.2334 269.757 91.7C270.455 91.2667 271.519 90.5 272.251 89.2C273.78 86.5 273.714 82.0334 271.287 80.8334C269.458 79.9334 266.565 80.9334 264.603 83.5C263.972 82.4 263.007 80.9334 261.544 79.4667C261.179 79.1 258.485 76.3667 255.426 75.1334C249.441 72.7667 240.53 75.3667 237.405 81.1334Z" fill="white" stroke="#161616" stroke-width="2" stroke-miterlimit="10"/>
<path d="M246.183 110.567C248.477 109.967 249.807 108.033 250.971 106.133C251.303 105.6 250.439 105.1 250.106 105.633C249.076 107.3 247.912 109.067 245.917 109.633C245.285 109.767 245.551 110.733 246.183 110.567Z" fill="#161616"/>
<path d="M249.209 106.067C249.874 106.1 250.406 106.367 250.838 106.867C251.27 107.367 251.968 106.633 251.536 106.167C250.938 105.467 250.106 105.1 249.209 105.067C248.544 105.067 248.544 106.067 249.209 106.067Z" fill="#161616"/>
<path d="M246.682 100.567C246.682 100.533 246.682 100.5 246.682 100.467C246.682 100.2 246.449 99.9667 246.183 99.9667C245.917 99.9667 245.684 100.2 245.684 100.467C245.684 100.5 245.684 100.533 245.684 100.567C245.684 100.833 245.917 101.067 246.183 101.067C246.449 101.033 246.682 100.833 246.682 100.567Z" fill="#161616"/>
<path d="M248.909 97.9C249.541 97.9 249.541 96.9 248.909 96.9C248.278 96.9 248.278 97.9 248.909 97.9Z" fill="#161616"/>
<path d="M248.61 100.433C249.242 100.433 249.242 99.4333 248.61 99.4333C247.978 99.4333 247.978 100.433 248.61 100.433Z" fill="#161616"/>
<path d="M235.975 92.5C234.911 92.1333 232.65 91.1667 231.353 88.9333C229.325 85.4667 230.954 81.4333 231.752 79.5333C232.185 78.4667 233.382 75.8333 239.167 70.6667C243.556 66.7 245.784 64.7333 248.278 63.6333C257.189 59.7333 266.299 63.4667 267.962 64.1667C270.422 65.1667 272.218 66.4 275.775 68.8C280.098 71.7333 282.858 73.6333 285.019 76.9C287.646 80.9 286.05 81.9333 288.311 86.4333C291.902 93.5667 296.856 92.7 299.815 99.3C300.314 100.4 303.074 106.533 299.948 111.9C297.388 116.267 292.168 117.833 288.311 117.733C281.162 117.533 276.673 111.4 274.312 108.2C269.824 102.1 268.959 95.6333 268.76 92.1667C271.586 90.7333 272.683 87.6667 271.652 85.5333C270.854 83.8333 268.527 82.4 266.499 83.2667C265.102 83.8667 264.204 85.4667 264.238 87.2333C262.908 87.4667 258.818 87.9667 254.595 85.6333C251.47 83.9333 249.774 81.5333 249.042 80.3333C247.18 81.0667 244.188 82.4667 241.229 85.2333C238.402 87.9 236.806 90.7 235.975 92.5Z" fill="#FD6F8D"/>
<path opacity="0.24" d="M257.654 94.4333C261.345 97.9 263.14 101.733 263.706 103.033C266.033 108.367 265.9 113.267 265.667 115.767C266.864 113.733 268.028 111.7 269.225 109.633C271.154 113.967 273.049 118.3 274.977 122.6C276.008 122.367 278.036 121.767 279.998 120.033C281.494 118.7 282.292 117.267 282.691 116.367C279.898 114.367 274.412 109.833 271.22 102.033C269.691 98.3 269.092 94.8334 268.893 92.2334C271.586 90.7667 272.716 87.8333 271.819 85.6333C271.187 84.0333 269.225 82.2333 267.064 82.8333C265.235 83.3333 263.972 85.3 264.271 87.5C262.874 87.6667 259.549 87.9 255.859 86.2667C252.035 84.5667 249.94 81.8 249.142 80.6333C250.04 86.5333 252.301 89.7334 254.196 91.5667C255.393 92.8 255.892 92.8 257.654 94.4333Z" fill="#6D6C6C"/>
<path opacity="0.24" d="M268.959 96.0333C268.726 96.0333 268.859 99.4667 268.527 102.633C268.095 106.7 266.898 109.933 265.9 112.1C266.798 111.533 268.128 110.467 269.292 108.8C270.954 106.367 271.253 103.967 271.353 102.8C271.054 102.333 270.655 101.667 270.289 100.833C269.125 98.1667 269.159 96.0333 268.959 96.0333Z" fill="#6D6C6C"/>
<path opacity="0.19" d="M270.123 107.6C270.921 108.433 272.051 109.533 273.514 110.733C277.937 114.433 282.226 116.533 282.359 116.3C282.492 116.067 278.302 114.367 275.11 109.767C273.115 106.9 271.952 103.5 271.453 103.667C271.22 103.733 271.42 104.533 271.021 105.833C270.755 106.6 270.389 107.2 270.123 107.6Z" fill="#6D6C6C"/>
<path opacity="0.74" d="M273.814 67.5667C277.737 74.3667 280.53 80.3 282.425 84.7C287.712 97.0667 287.28 100.467 286.548 102.667C284.919 107.633 280.397 110.433 277.704 111.767C278.369 112.7 281.129 116.4 286.183 117.433C287.147 117.633 292.966 118.733 297.388 114.7C300.68 111.733 301.178 107.8 301.278 106.767C301.877 101.167 298.552 96.9667 297.488 95.7667C296.091 94.2 295.792 94.5667 292.533 91.4C290.006 88.9667 288.776 87.7334 288.045 86.2C286.881 83.7 287.646 82.6333 286.282 79.4667C285.551 77.7333 284.686 76.5667 284.055 75.6667C280.829 71.3 276.174 68.7333 273.814 67.5667Z" fill="#D3468D"/>
<path opacity="0.52" d="M250.173 117.067C250.472 120.933 253.997 123.733 257.688 123.2C261.245 122.667 263.806 119.2 263.174 115.5C263.839 116.267 264.77 117.533 265.435 119.267C265.967 120.633 266.166 121.867 266.233 122.767C265.734 123.6 263.141 127.733 258.286 128.533C257.455 128.667 252.733 129.367 250.506 126.533C249.442 125.133 249.342 123.433 249.275 122.067C249.209 119.833 249.774 118.067 250.173 117.067Z" fill="#D3468D"/>
<path d="M243.922 95.0667C244.254 95.7334 244.254 96.7 243.822 96.9C243.39 97.1334 242.559 96.5 242.259 95.7667C242.027 95.1333 242.093 94.2334 242.525 94.0667C242.991 93.9 243.656 94.5 243.922 95.0667Z" fill="#161616"/>
<path d="M241.196 94.3C242.359 93.9 243.556 93.6 244.787 93.4C245.252 93.3334 245.052 92.6 244.587 92.6667C243.357 92.8667 242.16 93.1667 240.996 93.5667C240.531 93.7334 240.73 94.4333 241.196 94.3Z" fill="#161616"/>
</g>
<defs>
<clipPath id="clip0">
<rect width="532" height="400" fill="white"/>
</clipPath>
</defs>
</svg>
